<mxfile host="app.diagrams.net" modified="2020-11-11T03:29:10.084Z" agent="5.0 (Windows NT 10.0; Win64; x64) AppleWebKit/537.36 (KHTML, like Gecko) Chrome/86.0.4240.183 Safari/537.36" etag="uXOO-UaVwAPNWfye5VeM" version="13.9.2" type="github">
  <diagram name="Raise" id="e56a1550-8fbb-45ad-956c-1786394a9013">
    <mxGraphModel dx="3493" dy="1526" grid="1" gridSize="10" guides="1" tooltips="1" connect="1" arrows="1" fold="1" page="1" pageScale="1" pageWidth="1100" pageHeight="850" background="#F1FAEE" math="0" shadow="1">
      <root>
        <mxCell id="0" />
        <mxCell id="1" parent="0" />
        <mxCell id="zdtIfTnhVCdvp5yQkyVi-76" value="&lt;font style=&quot;font-size: 30px&quot;&gt;STORAGE&lt;/font&gt;" style="ellipse;shape=cloud;whiteSpace=wrap;html=1;rounded=1;strokeColor=#6c8ebf;fillColor=#dae8fc;" parent="1" vertex="1">
          <mxGeometry x="150" y="-270" width="400" height="310" as="geometry" />
        </mxCell>
        <mxCell id="zdtIfTnhVCdvp5yQkyVi-105" style="edgeStyle=orthogonalEdgeStyle;rounded=1;orthogonalLoop=1;jettySize=auto;html=1;strokeColor=#457B9D;fillColor=#A8DADC;fontColor=#1D3557;entryX=0.457;entryY=0.006;entryDx=0;entryDy=0;entryPerimeter=0;strokeWidth=2;" parent="1" source="2e49270ec7c68f3f-1" target="1UuWTUBXtNCIWCG-NorW-23" edge="1">
          <mxGeometry relative="1" as="geometry">
            <mxPoint x="-910" y="-180" as="targetPoint" />
            <Array as="points">
              <mxPoint x="-911" y="-410" />
              <mxPoint x="-911" y="-410" />
            </Array>
          </mxGeometry>
        </mxCell>
        <mxCell id="I7QZOoxyqQ6AWKhXD5qM-129" style="edgeStyle=orthogonalEdgeStyle;rounded=1;orthogonalLoop=1;jettySize=auto;html=1;exitX=0.5;exitY=0;exitDx=0;exitDy=0;entryX=0.5;entryY=0;entryDx=0;entryDy=0;strokeColor=#6c8ebf;fillColor=#dae8fc;strokeWidth=2;" parent="1" source="2e49270ec7c68f3f-1" target="zdtIfTnhVCdvp5yQkyVi-136" edge="1">
          <mxGeometry relative="1" as="geometry" />
        </mxCell>
        <mxCell id="2e49270ec7c68f3f-1" value="TCO_USER" style="swimlane;html=1;fontStyle=0;childLayout=stackLayout;horizontal=1;startSize=26;fillColor=#A8DADC;horizontalStack=0;resizeParent=1;resizeLast=0;collapsible=1;marginBottom=0;swimlaneFillColor=#ffffff;align=center;shadow=0;comic=0;labelBackgroundColor=none;strokeWidth=1;fontFamily=Verdana;fontSize=14;strokeColor=#457B9D;fontColor=#1D3557;" parent="1" vertex="1">
          <mxGeometry x="-1030" y="-780" width="240" height="290" as="geometry">
            <mxRectangle x="100" y="120" width="90" height="26" as="alternateBounds" />
          </mxGeometry>
        </mxCell>
        <mxCell id="2e49270ec7c68f3f-4" value="&amp;nbsp; &amp;nbsp; &lt;u&gt;USR_IDENTI (PK,FK)&lt;/u&gt;" style="shape=partialRectangle;top=0;left=0;right=0;bottom=1;html=1;align=left;verticalAlign=middle;fillColor=none;spacingLeft=60;spacingRight=4;whiteSpace=wrap;overflow=hidden;rotatable=0;points=[[0,0.5],[1,0.5]];portConstraint=eastwest;dropTarget=0;fontStyle=1;strokeColor=#457B9D;fontColor=#1D3557;" parent="2e49270ec7c68f3f-1" vertex="1">
          <mxGeometry y="26" width="240" height="44" as="geometry" />
        </mxCell>
        <mxCell id="2e49270ec7c68f3f-5" value="bigserial" style="shape=partialRectangle;fontStyle=1;top=0;left=0;bottom=0;html=1;fillColor=none;align=left;verticalAlign=middle;spacingLeft=4;spacingRight=4;whiteSpace=wrap;overflow=hidden;rotatable=0;points=[];portConstraint=eastwest;part=1;strokeColor=#457B9D;fontColor=#1D3557;" parent="2e49270ec7c68f3f-4" vertex="1" connectable="0">
          <mxGeometry width="70" height="44" as="geometry" />
        </mxCell>
        <mxCell id="4wFkRY6161EBLC2-bGz6-5" value="&amp;nbsp; &amp;nbsp; USR_NAME" style="shape=partialRectangle;top=0;left=0;right=0;bottom=0;html=1;align=left;verticalAlign=top;fillColor=none;spacingLeft=60;spacingRight=4;whiteSpace=wrap;overflow=hidden;rotatable=0;points=[[0,0.5],[1,0.5]];portConstraint=eastwest;dropTarget=0;strokeColor=#457B9D;fontColor=#1D3557;" parent="2e49270ec7c68f3f-1" vertex="1">
          <mxGeometry y="70" width="240" height="24" as="geometry" />
        </mxCell>
        <mxCell id="4wFkRY6161EBLC2-bGz6-6" value="char var" style="shape=partialRectangle;top=0;left=0;bottom=0;html=1;fillColor=none;align=left;verticalAlign=top;spacingLeft=4;spacingRight=4;whiteSpace=wrap;overflow=hidden;rotatable=0;points=[];portConstraint=eastwest;part=1;strokeColor=#457B9D;fontColor=#1D3557;" parent="4wFkRY6161EBLC2-bGz6-5" vertex="1" connectable="0">
          <mxGeometry width="70" height="24" as="geometry" />
        </mxCell>
        <mxCell id="4wFkRY6161EBLC2-bGz6-7" value="&amp;nbsp; &amp;nbsp; USR_EMAIL" style="shape=partialRectangle;top=0;left=0;right=0;bottom=0;html=1;align=left;verticalAlign=top;fillColor=none;spacingLeft=60;spacingRight=4;whiteSpace=wrap;overflow=hidden;rotatable=0;points=[[0,0.5],[1,0.5]];portConstraint=eastwest;dropTarget=0;strokeColor=#457B9D;fontColor=#1D3557;" parent="2e49270ec7c68f3f-1" vertex="1">
          <mxGeometry y="94" width="240" height="24" as="geometry" />
        </mxCell>
        <mxCell id="4wFkRY6161EBLC2-bGz6-8" value="char var" style="shape=partialRectangle;top=0;left=0;bottom=0;html=1;fillColor=none;align=left;verticalAlign=top;spacingLeft=4;spacingRight=4;whiteSpace=wrap;overflow=hidden;rotatable=0;points=[];portConstraint=eastwest;part=1;strokeColor=#457B9D;fontColor=#1D3557;" parent="4wFkRY6161EBLC2-bGz6-7" vertex="1" connectable="0">
          <mxGeometry width="70" height="24" as="geometry" />
        </mxCell>
        <mxCell id="4wFkRY6161EBLC2-bGz6-9" value="&amp;nbsp; &amp;nbsp; USR_FCBUSR" style="shape=partialRectangle;top=0;left=0;right=0;bottom=0;html=1;align=left;verticalAlign=top;fillColor=none;spacingLeft=60;spacingRight=4;whiteSpace=wrap;overflow=hidden;rotatable=0;points=[[0,0.5],[1,0.5]];portConstraint=eastwest;dropTarget=0;strokeColor=#457B9D;fontColor=#1D3557;" parent="2e49270ec7c68f3f-1" vertex="1">
          <mxGeometry y="118" width="240" height="24" as="geometry" />
        </mxCell>
        <mxCell id="4wFkRY6161EBLC2-bGz6-10" value="boolean" style="shape=partialRectangle;top=0;left=0;bottom=0;html=1;fillColor=none;align=left;verticalAlign=top;spacingLeft=4;spacingRight=4;whiteSpace=wrap;overflow=hidden;rotatable=0;points=[];portConstraint=eastwest;part=1;strokeColor=#457B9D;fontColor=#1D3557;" parent="4wFkRY6161EBLC2-bGz6-9" vertex="1" connectable="0">
          <mxGeometry width="70" height="24" as="geometry" />
        </mxCell>
        <mxCell id="4wFkRY6161EBLC2-bGz6-19" value="&amp;nbsp; &amp;nbsp; USR_PASWRD" style="shape=partialRectangle;top=0;left=0;right=0;bottom=0;html=1;align=left;verticalAlign=top;fillColor=none;spacingLeft=60;spacingRight=4;whiteSpace=wrap;overflow=hidden;rotatable=0;points=[[0,0.5],[1,0.5]];portConstraint=eastwest;dropTarget=0;strokeColor=#457B9D;fontColor=#1D3557;" parent="2e49270ec7c68f3f-1" vertex="1">
          <mxGeometry y="142" width="240" height="24" as="geometry" />
        </mxCell>
        <mxCell id="4wFkRY6161EBLC2-bGz6-20" value="char var" style="shape=partialRectangle;top=0;left=0;bottom=0;html=1;fillColor=none;align=left;verticalAlign=top;spacingLeft=4;spacingRight=4;whiteSpace=wrap;overflow=hidden;rotatable=0;points=[];portConstraint=eastwest;part=1;strokeColor=#457B9D;fontColor=#1D3557;" parent="4wFkRY6161EBLC2-bGz6-19" vertex="1" connectable="0">
          <mxGeometry width="70" height="24" as="geometry" />
        </mxCell>
        <mxCell id="4wFkRY6161EBLC2-bGz6-11" value="&amp;nbsp; &amp;nbsp; USR_ACPTER" style="shape=partialRectangle;top=0;left=0;right=0;bottom=0;html=1;align=left;verticalAlign=top;fillColor=none;spacingLeft=60;spacingRight=4;whiteSpace=wrap;overflow=hidden;rotatable=0;points=[[0,0.5],[1,0.5]];portConstraint=eastwest;dropTarget=0;strokeColor=#457B9D;fontColor=#1D3557;" parent="2e49270ec7c68f3f-1" vertex="1">
          <mxGeometry y="166" width="240" height="24" as="geometry" />
        </mxCell>
        <mxCell id="4wFkRY6161EBLC2-bGz6-12" value="boolean" style="shape=partialRectangle;top=0;left=0;bottom=0;html=1;fillColor=none;align=left;verticalAlign=top;spacingLeft=4;spacingRight=4;whiteSpace=wrap;overflow=hidden;rotatable=0;points=[];portConstraint=eastwest;part=1;strokeColor=#457B9D;fontColor=#1D3557;" parent="4wFkRY6161EBLC2-bGz6-11" vertex="1" connectable="0">
          <mxGeometry width="70" height="24" as="geometry" />
        </mxCell>
        <mxCell id="zdtIfTnhVCdvp5yQkyVi-17" value="&amp;nbsp; &amp;nbsp; USR_REMEMB" style="shape=partialRectangle;top=0;left=0;right=0;bottom=0;html=1;align=left;verticalAlign=top;fillColor=none;spacingLeft=60;spacingRight=4;whiteSpace=wrap;overflow=hidden;rotatable=0;points=[[0,0.5],[1,0.5]];portConstraint=eastwest;dropTarget=0;strokeColor=#457B9D;fontColor=#1D3557;" parent="2e49270ec7c68f3f-1" vertex="1">
          <mxGeometry y="190" width="240" height="24" as="geometry" />
        </mxCell>
        <mxCell id="zdtIfTnhVCdvp5yQkyVi-18" value="boolean" style="shape=partialRectangle;top=0;left=0;bottom=0;html=1;fillColor=none;align=left;verticalAlign=top;spacingLeft=4;spacingRight=4;whiteSpace=wrap;overflow=hidden;rotatable=0;points=[];portConstraint=eastwest;part=1;strokeColor=#457B9D;fontColor=#1D3557;" parent="zdtIfTnhVCdvp5yQkyVi-17" vertex="1" connectable="0">
          <mxGeometry width="70" height="24" as="geometry" />
        </mxCell>
        <mxCell id="zdtIfTnhVCdvp5yQkyVi-5" value="&amp;nbsp; &amp;nbsp; USR_GUID" style="shape=partialRectangle;top=0;left=0;right=0;bottom=0;html=1;align=left;verticalAlign=top;fillColor=none;spacingLeft=60;spacingRight=4;whiteSpace=wrap;overflow=hidden;rotatable=0;points=[[0,0.5],[1,0.5]];portConstraint=eastwest;dropTarget=0;strokeColor=#457B9D;fontColor=#1D3557;" parent="2e49270ec7c68f3f-1" vertex="1">
          <mxGeometry y="214" width="240" height="24" as="geometry" />
        </mxCell>
        <mxCell id="zdtIfTnhVCdvp5yQkyVi-6" value="uuid" style="shape=partialRectangle;top=0;left=0;bottom=0;html=1;fillColor=none;align=left;verticalAlign=top;spacingLeft=4;spacingRight=4;whiteSpace=wrap;overflow=hidden;rotatable=0;points=[];portConstraint=eastwest;part=1;strokeColor=#457B9D;fontColor=#1D3557;" parent="zdtIfTnhVCdvp5yQkyVi-5" vertex="1" connectable="0">
          <mxGeometry width="70" height="24" as="geometry" />
        </mxCell>
        <mxCell id="4wFkRY6161EBLC2-bGz6-13" value="&amp;nbsp; &amp;nbsp; USR_CREDAT" style="shape=partialRectangle;top=0;left=0;right=0;bottom=0;html=1;align=left;verticalAlign=top;fillColor=none;spacingLeft=60;spacingRight=4;whiteSpace=wrap;overflow=hidden;rotatable=0;points=[[0,0.5],[1,0.5]];portConstraint=eastwest;dropTarget=0;strokeColor=#457B9D;fontColor=#1D3557;" parent="2e49270ec7c68f3f-1" vertex="1">
          <mxGeometry y="238" width="240" height="24" as="geometry" />
        </mxCell>
        <mxCell id="4wFkRY6161EBLC2-bGz6-14" value="timestamp" style="shape=partialRectangle;top=0;left=0;bottom=0;html=1;fillColor=none;align=left;verticalAlign=top;spacingLeft=4;spacingRight=4;whiteSpace=wrap;overflow=hidden;rotatable=0;points=[];portConstraint=eastwest;part=1;strokeColor=#457B9D;fontColor=#1D3557;" parent="4wFkRY6161EBLC2-bGz6-13" vertex="1" connectable="0">
          <mxGeometry width="70" height="24" as="geometry" />
        </mxCell>
        <mxCell id="4wFkRY6161EBLC2-bGz6-15" value="&amp;nbsp; &amp;nbsp; USR_UPDDAT" style="shape=partialRectangle;top=0;left=0;right=0;bottom=0;html=1;align=left;verticalAlign=top;fillColor=none;spacingLeft=60;spacingRight=4;whiteSpace=wrap;overflow=hidden;rotatable=0;points=[[0,0.5],[1,0.5]];portConstraint=eastwest;dropTarget=0;strokeColor=#457B9D;fontColor=#1D3557;" parent="2e49270ec7c68f3f-1" vertex="1">
          <mxGeometry y="262" width="240" height="28" as="geometry" />
        </mxCell>
        <mxCell id="4wFkRY6161EBLC2-bGz6-16" value="timestamp" style="shape=partialRectangle;top=0;left=0;bottom=0;html=1;fillColor=none;align=left;verticalAlign=top;spacingLeft=4;spacingRight=4;whiteSpace=wrap;overflow=hidden;rotatable=0;points=[];portConstraint=eastwest;part=1;strokeColor=#457B9D;fontColor=#1D3557;" parent="4wFkRY6161EBLC2-bGz6-15" vertex="1" connectable="0">
          <mxGeometry width="70" height="28" as="geometry" />
        </mxCell>
        <mxCell id="zdtIfTnhVCdvp5yQkyVi-106" style="edgeStyle=orthogonalEdgeStyle;rounded=1;orthogonalLoop=1;jettySize=auto;html=1;entryX=0.5;entryY=0;entryDx=0;entryDy=0;strokeColor=#457B9D;fillColor=#A8DADC;fontColor=#1D3557;strokeWidth=2;" parent="1" source="4wFkRY6161EBLC2-bGz6-13" target="zdtIfTnhVCdvp5yQkyVi-81" edge="1">
          <mxGeometry relative="1" as="geometry" />
        </mxCell>
        <mxCell id="zdtIfTnhVCdvp5yQkyVi-81" value="TCO_POST" style="swimlane;html=1;fontStyle=0;childLayout=stackLayout;horizontal=1;startSize=26;fillColor=#A8DADC;horizontalStack=0;resizeParent=1;resizeLast=0;collapsible=1;marginBottom=0;swimlaneFillColor=#ffffff;align=center;shadow=0;comic=0;labelBackgroundColor=none;strokeWidth=1;fontFamily=Verdana;fontSize=14;strokeColor=#457B9D;fontColor=#1D3557;" parent="1" vertex="1">
          <mxGeometry x="-630" y="-450" width="261" height="241" as="geometry">
            <mxRectangle x="100" y="120" width="90" height="26" as="alternateBounds" />
          </mxGeometry>
        </mxCell>
        <mxCell id="zdtIfTnhVCdvp5yQkyVi-82" value="&amp;nbsp; &amp;nbsp; &lt;u&gt;POS_IDENTI (PK,FK)&lt;/u&gt;" style="shape=partialRectangle;top=0;left=0;right=0;bottom=1;html=1;align=left;verticalAlign=middle;fillColor=none;spacingLeft=60;spacingRight=4;whiteSpace=wrap;overflow=hidden;rotatable=0;points=[[0,0.5],[1,0.5]];portConstraint=eastwest;dropTarget=0;fontStyle=1;strokeColor=#457B9D;fontColor=#1D3557;" parent="zdtIfTnhVCdvp5yQkyVi-81" vertex="1">
          <mxGeometry y="26" width="261" height="44" as="geometry" />
        </mxCell>
        <mxCell id="zdtIfTnhVCdvp5yQkyVi-83" value="bigserial" style="shape=partialRectangle;fontStyle=1;top=0;left=0;bottom=0;html=1;fillColor=none;align=left;verticalAlign=middle;spacingLeft=4;spacingRight=4;whiteSpace=wrap;overflow=hidden;rotatable=0;points=[];portConstraint=eastwest;part=1;strokeColor=#457B9D;fontColor=#1D3557;" parent="zdtIfTnhVCdvp5yQkyVi-82" vertex="1" connectable="0">
          <mxGeometry width="70" height="44" as="geometry" />
        </mxCell>
        <mxCell id="zdtIfTnhVCdvp5yQkyVi-84" value="&amp;nbsp; &amp;nbsp; POS_USR_IDENTI (FK)" style="shape=partialRectangle;top=0;left=0;right=0;bottom=0;html=1;align=left;verticalAlign=top;fillColor=none;spacingLeft=60;spacingRight=4;whiteSpace=wrap;overflow=hidden;rotatable=0;points=[[0,0.5],[1,0.5]];portConstraint=eastwest;dropTarget=0;strokeColor=#457B9D;fontColor=#1D3557;" parent="zdtIfTnhVCdvp5yQkyVi-81" vertex="1">
          <mxGeometry y="70" width="261" height="24" as="geometry" />
        </mxCell>
        <mxCell id="zdtIfTnhVCdvp5yQkyVi-85" value="integer" style="shape=partialRectangle;top=0;left=0;bottom=0;html=1;fillColor=none;align=left;verticalAlign=top;spacingLeft=4;spacingRight=4;whiteSpace=wrap;overflow=hidden;rotatable=0;points=[];portConstraint=eastwest;part=1;strokeColor=#457B9D;fontColor=#1D3557;" parent="zdtIfTnhVCdvp5yQkyVi-84" vertex="1" connectable="0">
          <mxGeometry width="70" height="24" as="geometry" />
        </mxCell>
        <mxCell id="zdtIfTnhVCdvp5yQkyVi-86" value="&amp;nbsp; &amp;nbsp; POS_GUID" style="shape=partialRectangle;top=0;left=0;right=0;bottom=0;html=1;align=left;verticalAlign=top;fillColor=none;spacingLeft=60;spacingRight=4;whiteSpace=wrap;overflow=hidden;rotatable=0;points=[[0,0.5],[1,0.5]];portConstraint=eastwest;dropTarget=0;strokeColor=#457B9D;fontColor=#1D3557;" parent="zdtIfTnhVCdvp5yQkyVi-81" vertex="1">
          <mxGeometry y="94" width="261" height="24" as="geometry" />
        </mxCell>
        <mxCell id="zdtIfTnhVCdvp5yQkyVi-87" value="&lt;span&gt;uuid&lt;/span&gt;" style="shape=partialRectangle;top=0;left=0;bottom=0;html=1;fillColor=none;align=left;verticalAlign=top;spacingLeft=4;spacingRight=4;whiteSpace=wrap;overflow=hidden;rotatable=0;points=[];portConstraint=eastwest;part=1;strokeColor=#457B9D;fontColor=#1D3557;" parent="zdtIfTnhVCdvp5yQkyVi-86" vertex="1" connectable="0">
          <mxGeometry width="70" height="24" as="geometry" />
        </mxCell>
        <mxCell id="zdtIfTnhVCdvp5yQkyVi-88" value="&amp;nbsp; &amp;nbsp; POS_IMAGE" style="shape=partialRectangle;top=0;left=0;right=0;bottom=0;html=1;align=left;verticalAlign=top;fillColor=#dae8fc;spacingLeft=60;spacingRight=4;whiteSpace=wrap;overflow=hidden;rotatable=0;points=[[0,0.5],[1,0.5]];portConstraint=eastwest;dropTarget=0;strokeColor=#6c8ebf;" parent="zdtIfTnhVCdvp5yQkyVi-81" vertex="1">
          <mxGeometry y="118" width="261" height="24" as="geometry" />
        </mxCell>
        <mxCell id="zdtIfTnhVCdvp5yQkyVi-89" value="char var" style="shape=partialRectangle;top=0;left=0;bottom=0;html=1;fillColor=none;align=left;verticalAlign=top;spacingLeft=4;spacingRight=4;whiteSpace=wrap;overflow=hidden;rotatable=0;points=[];portConstraint=eastwest;part=1;strokeColor=#457B9D;fontColor=#1D3557;" parent="zdtIfTnhVCdvp5yQkyVi-88" vertex="1" connectable="0">
          <mxGeometry width="70" height="24" as="geometry" />
        </mxCell>
        <mxCell id="zdtIfTnhVCdvp5yQkyVi-90" value="&amp;nbsp; &amp;nbsp; POS_DESCRI" style="shape=partialRectangle;top=0;left=0;right=0;bottom=0;html=1;align=left;verticalAlign=top;fillColor=none;spacingLeft=60;spacingRight=4;whiteSpace=wrap;overflow=hidden;rotatable=0;points=[[0,0.5],[1,0.5]];portConstraint=eastwest;dropTarget=0;strokeColor=#457B9D;fontColor=#1D3557;" parent="zdtIfTnhVCdvp5yQkyVi-81" vertex="1">
          <mxGeometry y="142" width="261" height="24" as="geometry" />
        </mxCell>
        <mxCell id="zdtIfTnhVCdvp5yQkyVi-91" value="char var" style="shape=partialRectangle;top=0;left=0;bottom=0;html=1;fillColor=none;align=left;verticalAlign=top;spacingLeft=4;spacingRight=4;whiteSpace=wrap;overflow=hidden;rotatable=0;points=[];portConstraint=eastwest;part=1;strokeColor=#457B9D;fontColor=#1D3557;" parent="zdtIfTnhVCdvp5yQkyVi-90" vertex="1" connectable="0">
          <mxGeometry width="70" height="24" as="geometry" />
        </mxCell>
        <mxCell id="zdtIfTnhVCdvp5yQkyVi-92" value="&amp;nbsp; &amp;nbsp; POS_DATE" style="shape=partialRectangle;top=0;left=0;right=0;bottom=0;html=1;align=left;verticalAlign=top;fillColor=none;spacingLeft=60;spacingRight=4;whiteSpace=wrap;overflow=hidden;rotatable=0;points=[[0,0.5],[1,0.5]];portConstraint=eastwest;dropTarget=0;strokeColor=#457B9D;fontColor=#1D3557;" parent="zdtIfTnhVCdvp5yQkyVi-81" vertex="1">
          <mxGeometry y="166" width="261" height="22" as="geometry" />
        </mxCell>
        <mxCell id="zdtIfTnhVCdvp5yQkyVi-93" value="timestamp" style="shape=partialRectangle;top=0;left=0;bottom=0;html=1;fillColor=none;align=left;verticalAlign=top;spacingLeft=4;spacingRight=4;whiteSpace=wrap;overflow=hidden;rotatable=0;points=[];portConstraint=eastwest;part=1;strokeColor=#457B9D;fontColor=#1D3557;" parent="zdtIfTnhVCdvp5yQkyVi-92" vertex="1" connectable="0">
          <mxGeometry width="70" height="22" as="geometry" />
        </mxCell>
        <mxCell id="zdtIfTnhVCdvp5yQkyVi-100" value="&amp;nbsp; &amp;nbsp; POS_CREDAT" style="shape=partialRectangle;top=0;left=0;right=0;bottom=0;html=1;align=left;verticalAlign=top;fillColor=none;spacingLeft=60;spacingRight=4;whiteSpace=wrap;overflow=hidden;rotatable=0;points=[[0,0.5],[1,0.5]];portConstraint=eastwest;dropTarget=0;strokeColor=#457B9D;fontColor=#1D3557;" parent="zdtIfTnhVCdvp5yQkyVi-81" vertex="1">
          <mxGeometry y="188" width="261" height="22" as="geometry" />
        </mxCell>
        <mxCell id="zdtIfTnhVCdvp5yQkyVi-101" value="timestamp" style="shape=partialRectangle;top=0;left=0;bottom=0;html=1;fillColor=none;align=left;verticalAlign=top;spacingLeft=4;spacingRight=4;whiteSpace=wrap;overflow=hidden;rotatable=0;points=[];portConstraint=eastwest;part=1;strokeColor=#457B9D;fontColor=#1D3557;" parent="zdtIfTnhVCdvp5yQkyVi-100" vertex="1" connectable="0">
          <mxGeometry width="70" height="22" as="geometry" />
        </mxCell>
        <mxCell id="zdtIfTnhVCdvp5yQkyVi-102" value="&amp;nbsp; &amp;nbsp; POS_UPDDAT" style="shape=partialRectangle;top=0;left=0;right=0;bottom=0;html=1;align=left;verticalAlign=top;fillColor=none;spacingLeft=60;spacingRight=4;whiteSpace=wrap;overflow=hidden;rotatable=0;points=[[0,0.5],[1,0.5]];portConstraint=eastwest;dropTarget=0;strokeColor=#457B9D;fontColor=#1D3557;" parent="zdtIfTnhVCdvp5yQkyVi-81" vertex="1">
          <mxGeometry y="210" width="261" height="30" as="geometry" />
        </mxCell>
        <mxCell id="zdtIfTnhVCdvp5yQkyVi-103" value="timestamp" style="shape=partialRectangle;top=0;left=0;bottom=0;html=1;fillColor=none;align=left;verticalAlign=top;spacingLeft=4;spacingRight=4;whiteSpace=wrap;overflow=hidden;rotatable=0;points=[];portConstraint=eastwest;part=1;strokeColor=#457B9D;fontColor=#1D3557;" parent="zdtIfTnhVCdvp5yQkyVi-102" vertex="1" connectable="0">
          <mxGeometry width="70" height="30" as="geometry" />
        </mxCell>
        <mxCell id="I7QZOoxyqQ6AWKhXD5qM-62" style="edgeStyle=orthogonalEdgeStyle;rounded=1;orthogonalLoop=1;jettySize=auto;html=1;fillColor=#dae8fc;strokeColor=#6c8ebf;" parent="1" source="1UuWTUBXtNCIWCG-NorW-23" target="iSOXeTbzysZyc92H4kfC-1" edge="1">
          <mxGeometry relative="1" as="geometry">
            <Array as="points">
              <mxPoint x="-910" y="170" />
              <mxPoint x="-910" y="170" />
            </Array>
          </mxGeometry>
        </mxCell>
        <mxCell id="1UuWTUBXtNCIWCG-NorW-23" value="TCO_ACCOUN" style="swimlane;html=1;fontStyle=0;childLayout=stackLayout;horizontal=1;startSize=26;fillColor=#A8DADC;horizontalStack=0;resizeParent=1;resizeLast=0;collapsible=1;marginBottom=0;swimlaneFillColor=#ffffff;align=center;shadow=0;comic=0;labelBackgroundColor=none;strokeWidth=1;fontFamily=Verdana;fontSize=14;strokeColor=#457B9D;fontColor=#1D3557;" parent="1" vertex="1">
          <mxGeometry x="-1030" y="-170" width="261" height="310" as="geometry">
            <mxRectangle x="100" y="120" width="90" height="26" as="alternateBounds" />
          </mxGeometry>
        </mxCell>
        <mxCell id="zdtIfTnhVCdvp5yQkyVi-19" value="&amp;nbsp; &amp;nbsp; &lt;u&gt;ACC_IDENTI (PK,FK)&lt;/u&gt;" style="shape=partialRectangle;top=0;left=0;right=0;bottom=1;html=1;align=left;verticalAlign=middle;fillColor=none;spacingLeft=60;spacingRight=4;whiteSpace=wrap;overflow=hidden;rotatable=0;points=[[0,0.5],[1,0.5]];portConstraint=eastwest;dropTarget=0;fontStyle=1;strokeColor=#457B9D;fontColor=#1D3557;" parent="1UuWTUBXtNCIWCG-NorW-23" vertex="1">
          <mxGeometry y="26" width="261" height="44" as="geometry" />
        </mxCell>
        <mxCell id="zdtIfTnhVCdvp5yQkyVi-20" value="bigserial" style="shape=partialRectangle;fontStyle=1;top=0;left=0;bottom=0;html=1;fillColor=none;align=left;verticalAlign=middle;spacingLeft=4;spacingRight=4;whiteSpace=wrap;overflow=hidden;rotatable=0;points=[];portConstraint=eastwest;part=1;strokeColor=#457B9D;fontColor=#1D3557;" parent="zdtIfTnhVCdvp5yQkyVi-19" vertex="1" connectable="0">
          <mxGeometry width="70" height="44" as="geometry" />
        </mxCell>
        <mxCell id="zdtIfTnhVCdvp5yQkyVi-31" value="&amp;nbsp; &amp;nbsp; ACC_USR_IDENTI (FK)" style="shape=partialRectangle;top=0;left=0;right=0;bottom=0;html=1;align=left;verticalAlign=top;fillColor=none;spacingLeft=60;spacingRight=4;whiteSpace=wrap;overflow=hidden;rotatable=0;points=[[0,0.5],[1,0.5]];portConstraint=eastwest;dropTarget=0;strokeColor=#457B9D;fontColor=#1D3557;" parent="1UuWTUBXtNCIWCG-NorW-23" vertex="1">
          <mxGeometry y="70" width="261" height="24" as="geometry" />
        </mxCell>
        <mxCell id="zdtIfTnhVCdvp5yQkyVi-32" value="integer" style="shape=partialRectangle;top=0;left=0;bottom=0;html=1;fillColor=none;align=left;verticalAlign=top;spacingLeft=4;spacingRight=4;whiteSpace=wrap;overflow=hidden;rotatable=0;points=[];portConstraint=eastwest;part=1;strokeColor=#457B9D;fontColor=#1D3557;" parent="zdtIfTnhVCdvp5yQkyVi-31" vertex="1" connectable="0">
          <mxGeometry width="70" height="24" as="geometry" />
        </mxCell>
        <mxCell id="zdtIfTnhVCdvp5yQkyVi-35" value="&amp;nbsp; &amp;nbsp; ACC_CITY" style="shape=partialRectangle;top=0;left=0;right=0;bottom=0;html=1;align=left;verticalAlign=top;fillColor=none;spacingLeft=60;spacingRight=4;whiteSpace=wrap;overflow=hidden;rotatable=0;points=[[0,0.5],[1,0.5]];portConstraint=eastwest;dropTarget=0;strokeColor=#457B9D;fontColor=#1D3557;" parent="1UuWTUBXtNCIWCG-NorW-23" vertex="1">
          <mxGeometry y="94" width="261" height="24" as="geometry" />
        </mxCell>
        <mxCell id="zdtIfTnhVCdvp5yQkyVi-36" value="&lt;span&gt;char var&lt;/span&gt;" style="shape=partialRectangle;top=0;left=0;bottom=0;html=1;fillColor=none;align=left;verticalAlign=top;spacingLeft=4;spacingRight=4;whiteSpace=wrap;overflow=hidden;rotatable=0;points=[];portConstraint=eastwest;part=1;strokeColor=#457B9D;fontColor=#1D3557;" parent="zdtIfTnhVCdvp5yQkyVi-35" vertex="1" connectable="0">
          <mxGeometry width="70" height="24" as="geometry" />
        </mxCell>
        <mxCell id="zdtIfTnhVCdvp5yQkyVi-33" value="&amp;nbsp; &amp;nbsp; ACC_STATE" style="shape=partialRectangle;top=0;left=0;right=0;bottom=0;html=1;align=left;verticalAlign=top;fillColor=none;spacingLeft=60;spacingRight=4;whiteSpace=wrap;overflow=hidden;rotatable=0;points=[[0,0.5],[1,0.5]];portConstraint=eastwest;dropTarget=0;strokeColor=#457B9D;fontColor=#1D3557;" parent="1UuWTUBXtNCIWCG-NorW-23" vertex="1">
          <mxGeometry y="118" width="261" height="24" as="geometry" />
        </mxCell>
        <mxCell id="zdtIfTnhVCdvp5yQkyVi-34" value="char var" style="shape=partialRectangle;top=0;left=0;bottom=0;html=1;fillColor=none;align=left;verticalAlign=top;spacingLeft=4;spacingRight=4;whiteSpace=wrap;overflow=hidden;rotatable=0;points=[];portConstraint=eastwest;part=1;strokeColor=#457B9D;fontColor=#1D3557;" parent="zdtIfTnhVCdvp5yQkyVi-33" vertex="1" connectable="0">
          <mxGeometry width="70" height="24" as="geometry" />
        </mxCell>
        <mxCell id="zdtIfTnhVCdvp5yQkyVi-29" value="&amp;nbsp; &amp;nbsp; ACC_BTHDAY" style="shape=partialRectangle;top=0;left=0;right=0;bottom=0;html=1;align=left;verticalAlign=top;fillColor=none;spacingLeft=60;spacingRight=4;whiteSpace=wrap;overflow=hidden;rotatable=0;points=[[0,0.5],[1,0.5]];portConstraint=eastwest;dropTarget=0;strokeColor=#457B9D;fontColor=#1D3557;" parent="1UuWTUBXtNCIWCG-NorW-23" vertex="1">
          <mxGeometry y="142" width="261" height="24" as="geometry" />
        </mxCell>
        <mxCell id="zdtIfTnhVCdvp5yQkyVi-30" value="timestamp" style="shape=partialRectangle;top=0;left=0;bottom=0;html=1;fillColor=none;align=left;verticalAlign=top;spacingLeft=4;spacingRight=4;whiteSpace=wrap;overflow=hidden;rotatable=0;points=[];portConstraint=eastwest;part=1;strokeColor=#457B9D;fontColor=#1D3557;" parent="zdtIfTnhVCdvp5yQkyVi-29" vertex="1" connectable="0">
          <mxGeometry width="70" height="24" as="geometry" />
        </mxCell>
        <mxCell id="zdtIfTnhVCdvp5yQkyVi-40" value="&amp;nbsp; &amp;nbsp; ACC_CAT_IDENTI" style="shape=partialRectangle;top=0;left=0;right=0;bottom=0;html=1;align=left;verticalAlign=top;fillColor=none;spacingLeft=60;spacingRight=4;whiteSpace=wrap;overflow=hidden;rotatable=0;points=[[0,0.5],[1,0.5]];portConstraint=eastwest;dropTarget=0;strokeColor=#457B9D;fontColor=#1D3557;" parent="1UuWTUBXtNCIWCG-NorW-23" vertex="1">
          <mxGeometry y="166" width="261" height="22" as="geometry" />
        </mxCell>
        <mxCell id="zdtIfTnhVCdvp5yQkyVi-41" value="integer" style="shape=partialRectangle;top=0;left=0;bottom=0;html=1;fillColor=none;align=left;verticalAlign=top;spacingLeft=4;spacingRight=4;whiteSpace=wrap;overflow=hidden;rotatable=0;points=[];portConstraint=eastwest;part=1;strokeColor=#457B9D;fontColor=#1D3557;" parent="zdtIfTnhVCdvp5yQkyVi-40" vertex="1" connectable="0">
          <mxGeometry width="70" height="22" as="geometry" />
        </mxCell>
        <mxCell id="zdtIfTnhVCdvp5yQkyVi-27" value="&amp;nbsp; &amp;nbsp; ACC_NCKNAM" style="shape=partialRectangle;top=0;left=0;right=0;bottom=0;html=1;align=left;verticalAlign=top;fillColor=none;spacingLeft=60;spacingRight=4;whiteSpace=wrap;overflow=hidden;rotatable=0;points=[[0,0.5],[1,0.5]];portConstraint=eastwest;dropTarget=0;strokeColor=#457B9D;fontColor=#1D3557;" parent="1UuWTUBXtNCIWCG-NorW-23" vertex="1">
          <mxGeometry y="188" width="261" height="24" as="geometry" />
        </mxCell>
        <mxCell id="zdtIfTnhVCdvp5yQkyVi-28" value="char var" style="shape=partialRectangle;top=0;left=0;bottom=0;html=1;fillColor=none;align=left;verticalAlign=top;spacingLeft=4;spacingRight=4;whiteSpace=wrap;overflow=hidden;rotatable=0;points=[];portConstraint=eastwest;part=1;strokeColor=#457B9D;fontColor=#1D3557;" parent="zdtIfTnhVCdvp5yQkyVi-27" vertex="1" connectable="0">
          <mxGeometry width="70" height="24" as="geometry" />
        </mxCell>
        <mxCell id="zdtIfTnhVCdvp5yQkyVi-23" value="&lt;span&gt;&amp;nbsp; &amp;nbsp; ACC_IMAGE&lt;/span&gt;" style="shape=partialRectangle;top=0;left=0;right=0;bottom=0;html=1;align=left;verticalAlign=top;fillColor=#dae8fc;spacingLeft=60;spacingRight=4;whiteSpace=wrap;overflow=hidden;rotatable=0;points=[[0,0.5],[1,0.5]];portConstraint=eastwest;dropTarget=0;strokeColor=#6c8ebf;" parent="1UuWTUBXtNCIWCG-NorW-23" vertex="1">
          <mxGeometry y="212" width="261" height="24" as="geometry" />
        </mxCell>
        <mxCell id="zdtIfTnhVCdvp5yQkyVi-24" value="char var" style="shape=partialRectangle;top=0;left=0;bottom=0;html=1;fillColor=none;align=left;verticalAlign=top;spacingLeft=4;spacingRight=4;whiteSpace=wrap;overflow=hidden;rotatable=0;points=[];portConstraint=eastwest;part=1;strokeColor=#457B9D;fontColor=#1D3557;" parent="zdtIfTnhVCdvp5yQkyVi-23" vertex="1" connectable="0">
          <mxGeometry width="70" height="24" as="geometry" />
        </mxCell>
        <mxCell id="zdtIfTnhVCdvp5yQkyVi-25" value="&amp;nbsp; &amp;nbsp; ACC_INIDAT" style="shape=partialRectangle;top=0;left=0;right=0;bottom=0;html=1;align=left;verticalAlign=top;fillColor=none;spacingLeft=60;spacingRight=4;whiteSpace=wrap;overflow=hidden;rotatable=0;points=[[0,0.5],[1,0.5]];portConstraint=eastwest;dropTarget=0;strokeColor=#457B9D;fontColor=#1D3557;" parent="1UuWTUBXtNCIWCG-NorW-23" vertex="1">
          <mxGeometry y="236" width="261" height="24" as="geometry" />
        </mxCell>
        <mxCell id="zdtIfTnhVCdvp5yQkyVi-26" value="timestamp" style="shape=partialRectangle;top=0;left=0;bottom=0;html=1;fillColor=none;align=left;verticalAlign=top;spacingLeft=4;spacingRight=4;whiteSpace=wrap;overflow=hidden;rotatable=0;points=[];portConstraint=eastwest;part=1;strokeColor=#457B9D;fontColor=#1D3557;" parent="zdtIfTnhVCdvp5yQkyVi-25" vertex="1" connectable="0">
          <mxGeometry width="70" height="24" as="geometry" />
        </mxCell>
        <mxCell id="zdtIfTnhVCdvp5yQkyVi-21" value="&amp;nbsp; &amp;nbsp; ACC_CREDAT" style="shape=partialRectangle;top=0;left=0;right=0;bottom=0;html=1;align=left;verticalAlign=top;fillColor=none;spacingLeft=60;spacingRight=4;whiteSpace=wrap;overflow=hidden;rotatable=0;points=[[0,0.5],[1,0.5]];portConstraint=eastwest;dropTarget=0;strokeColor=#457B9D;fontColor=#1D3557;" parent="1UuWTUBXtNCIWCG-NorW-23" vertex="1">
          <mxGeometry y="260" width="261" height="22" as="geometry" />
        </mxCell>
        <mxCell id="zdtIfTnhVCdvp5yQkyVi-22" value="timestamp" style="shape=partialRectangle;top=0;left=0;bottom=0;html=1;fillColor=none;align=left;verticalAlign=top;spacingLeft=4;spacingRight=4;whiteSpace=wrap;overflow=hidden;rotatable=0;points=[];portConstraint=eastwest;part=1;strokeColor=#457B9D;fontColor=#1D3557;" parent="zdtIfTnhVCdvp5yQkyVi-21" vertex="1" connectable="0">
          <mxGeometry width="70" height="22" as="geometry" />
        </mxCell>
        <mxCell id="zdtIfTnhVCdvp5yQkyVi-37" value="&amp;nbsp; &amp;nbsp; ACC_UPDDAT" style="shape=partialRectangle;top=0;left=0;right=0;bottom=0;html=1;align=left;verticalAlign=top;fillColor=none;spacingLeft=60;spacingRight=4;whiteSpace=wrap;overflow=hidden;rotatable=0;points=[[0,0.5],[1,0.5]];portConstraint=eastwest;dropTarget=0;strokeColor=#457B9D;fontColor=#1D3557;" parent="1UuWTUBXtNCIWCG-NorW-23" vertex="1">
          <mxGeometry y="282" width="261" height="28" as="geometry" />
        </mxCell>
        <mxCell id="zdtIfTnhVCdvp5yQkyVi-38" value="timestamp" style="shape=partialRectangle;top=0;left=0;bottom=0;html=1;fillColor=none;align=left;verticalAlign=top;spacingLeft=4;spacingRight=4;whiteSpace=wrap;overflow=hidden;rotatable=0;points=[];portConstraint=eastwest;part=1;strokeColor=#457B9D;fontColor=#1D3557;" parent="zdtIfTnhVCdvp5yQkyVi-37" vertex="1" connectable="0">
          <mxGeometry width="70" height="28" as="geometry" />
        </mxCell>
        <mxCell id="zdtIfTnhVCdvp5yQkyVi-114" style="edgeStyle=orthogonalEdgeStyle;rounded=1;orthogonalLoop=1;jettySize=auto;html=1;strokeColor=#6c8ebf;fillColor=#dae8fc;fontColor=#1D3557;strokeWidth=2;" parent="1" edge="1">
          <mxGeometry relative="1" as="geometry">
            <Array as="points">
              <mxPoint x="310" y="-320" />
            </Array>
            <mxPoint x="-369" y="-320" as="sourcePoint" />
            <mxPoint x="310" y="-240" as="targetPoint" />
          </mxGeometry>
        </mxCell>
        <mxCell id="zdtIfTnhVCdvp5yQkyVi-136" value="TCO_FOLLOW" style="swimlane;html=1;fontStyle=0;childLayout=stackLayout;horizontal=1;startSize=26;fillColor=#A8DADC;horizontalStack=0;resizeParent=1;resizeLast=0;collapsible=1;marginBottom=0;swimlaneFillColor=#ffffff;align=center;shadow=0;comic=0;labelBackgroundColor=none;strokeWidth=1;fontFamily=Verdana;fontSize=14;strokeColor=#457B9D;fontColor=#1D3557;" parent="1" vertex="1">
          <mxGeometry x="-639.5" y="-780" width="280" height="150" as="geometry">
            <mxRectangle x="100" y="120" width="90" height="26" as="alternateBounds" />
          </mxGeometry>
        </mxCell>
        <mxCell id="zdtIfTnhVCdvp5yQkyVi-137" value="&amp;nbsp; &amp;nbsp; &lt;u&gt;FLW_IDENTI (PK,FK)&lt;/u&gt;" style="shape=partialRectangle;top=0;left=0;right=0;bottom=1;html=1;align=left;verticalAlign=middle;fillColor=none;spacingLeft=60;spacingRight=4;whiteSpace=wrap;overflow=hidden;rotatable=0;points=[[0,0.5],[1,0.5]];portConstraint=eastwest;dropTarget=0;fontStyle=1;strokeColor=#457B9D;fontColor=#1D3557;" parent="zdtIfTnhVCdvp5yQkyVi-136" vertex="1">
          <mxGeometry y="26" width="280" height="44" as="geometry" />
        </mxCell>
        <mxCell id="zdtIfTnhVCdvp5yQkyVi-138" value="bigserial" style="shape=partialRectangle;fontStyle=1;top=0;left=0;bottom=0;html=1;fillColor=none;align=left;verticalAlign=middle;spacingLeft=4;spacingRight=4;whiteSpace=wrap;overflow=hidden;rotatable=0;points=[];portConstraint=eastwest;part=1;strokeColor=#457B9D;fontColor=#1D3557;" parent="zdtIfTnhVCdvp5yQkyVi-137" vertex="1" connectable="0">
          <mxGeometry width="70" height="44" as="geometry" />
        </mxCell>
        <mxCell id="zdtIfTnhVCdvp5yQkyVi-139" value="&amp;nbsp; &amp;nbsp; FLW_USR_IDENTI (FK)" style="shape=partialRectangle;top=0;left=0;right=0;bottom=0;html=1;align=left;verticalAlign=top;fillColor=none;spacingLeft=60;spacingRight=4;whiteSpace=wrap;overflow=hidden;rotatable=0;points=[[0,0.5],[1,0.5]];portConstraint=eastwest;dropTarget=0;strokeColor=#457B9D;fontColor=#1D3557;" parent="zdtIfTnhVCdvp5yQkyVi-136" vertex="1">
          <mxGeometry y="70" width="280" height="24" as="geometry" />
        </mxCell>
        <mxCell id="zdtIfTnhVCdvp5yQkyVi-140" value="integer" style="shape=partialRectangle;top=0;left=0;bottom=0;html=1;fillColor=none;align=left;verticalAlign=top;spacingLeft=4;spacingRight=4;whiteSpace=wrap;overflow=hidden;rotatable=0;points=[];portConstraint=eastwest;part=1;strokeColor=#457B9D;fontColor=#1D3557;" parent="zdtIfTnhVCdvp5yQkyVi-139" vertex="1" connectable="0">
          <mxGeometry width="70" height="24" as="geometry" />
        </mxCell>
        <mxCell id="zdtIfTnhVCdvp5yQkyVi-141" value="&amp;nbsp; &amp;nbsp; FLW_USR_USR_IDENTI (FK)" style="shape=partialRectangle;top=0;left=0;right=0;bottom=0;html=1;align=left;verticalAlign=top;fillColor=none;spacingLeft=60;spacingRight=4;whiteSpace=wrap;overflow=hidden;rotatable=0;points=[[0,0.5],[1,0.5]];portConstraint=eastwest;dropTarget=0;strokeColor=#457B9D;fontColor=#1D3557;" parent="zdtIfTnhVCdvp5yQkyVi-136" vertex="1">
          <mxGeometry y="94" width="280" height="24" as="geometry" />
        </mxCell>
        <mxCell id="zdtIfTnhVCdvp5yQkyVi-142" value="integer" style="shape=partialRectangle;top=0;left=0;bottom=0;html=1;fillColor=none;align=left;verticalAlign=top;spacingLeft=4;spacingRight=4;whiteSpace=wrap;overflow=hidden;rotatable=0;points=[];portConstraint=eastwest;part=1;strokeColor=#457B9D;fontColor=#1D3557;" parent="zdtIfTnhVCdvp5yQkyVi-141" vertex="1" connectable="0">
          <mxGeometry width="70" height="24" as="geometry" />
        </mxCell>
        <mxCell id="zdtIfTnhVCdvp5yQkyVi-153" value="&amp;nbsp; &amp;nbsp; FLW_CREDAT" style="shape=partialRectangle;top=0;left=0;right=0;bottom=0;html=1;align=left;verticalAlign=top;fillColor=none;spacingLeft=60;spacingRight=4;whiteSpace=wrap;overflow=hidden;rotatable=0;points=[[0,0.5],[1,0.5]];portConstraint=eastwest;dropTarget=0;strokeColor=#457B9D;fontColor=#1D3557;" parent="zdtIfTnhVCdvp5yQkyVi-136" vertex="1">
          <mxGeometry y="118" width="280" height="32" as="geometry" />
        </mxCell>
        <mxCell id="zdtIfTnhVCdvp5yQkyVi-154" value="timestamp" style="shape=partialRectangle;top=0;left=0;bottom=0;html=1;fillColor=none;align=left;verticalAlign=top;spacingLeft=4;spacingRight=4;whiteSpace=wrap;overflow=hidden;rotatable=0;points=[];portConstraint=eastwest;part=1;strokeColor=#457B9D;fontColor=#1D3557;" parent="zdtIfTnhVCdvp5yQkyVi-153" vertex="1" connectable="0">
          <mxGeometry width="70" height="32" as="geometry" />
        </mxCell>
        <mxCell id="iSOXeTbzysZyc92H4kfC-1" value="TCO_CATEGO" style="swimlane;html=1;fontStyle=0;childLayout=stackLayout;horizontal=1;startSize=26;fillColor=#A8DADC;horizontalStack=0;resizeParent=1;resizeLast=0;collapsible=1;marginBottom=0;swimlaneFillColor=#ffffff;align=center;shadow=0;comic=0;labelBackgroundColor=none;strokeWidth=1;fontFamily=Verdana;fontSize=14;strokeColor=#457B9D;fontColor=#1D3557;" parent="1" vertex="1">
          <mxGeometry x="-1040.5" y="190" width="261" height="144" as="geometry">
            <mxRectangle x="100" y="120" width="90" height="26" as="alternateBounds" />
          </mxGeometry>
        </mxCell>
        <mxCell id="iSOXeTbzysZyc92H4kfC-2" value="&amp;nbsp; &amp;nbsp; &lt;u&gt;CAT_IDENTI (PK,FK)&lt;/u&gt;" style="shape=partialRectangle;top=0;left=0;right=0;bottom=1;html=1;align=left;verticalAlign=middle;fillColor=none;spacingLeft=60;spacingRight=4;whiteSpace=wrap;overflow=hidden;rotatable=0;points=[[0,0.5],[1,0.5]];portConstraint=eastwest;dropTarget=0;fontStyle=1;strokeColor=#457B9D;fontColor=#1D3557;" parent="iSOXeTbzysZyc92H4kfC-1" vertex="1">
          <mxGeometry y="26" width="261" height="44" as="geometry" />
        </mxCell>
        <mxCell id="iSOXeTbzysZyc92H4kfC-3" value="bigserial" style="shape=partialRectangle;fontStyle=1;top=0;left=0;bottom=0;html=1;fillColor=none;align=left;verticalAlign=middle;spacingLeft=4;spacingRight=4;whiteSpace=wrap;overflow=hidden;rotatable=0;points=[];portConstraint=eastwest;part=1;strokeColor=#457B9D;fontColor=#1D3557;" parent="iSOXeTbzysZyc92H4kfC-2" vertex="1" connectable="0">
          <mxGeometry width="70" height="44" as="geometry" />
        </mxCell>
        <mxCell id="iSOXeTbzysZyc92H4kfC-6" value="&amp;nbsp; &amp;nbsp; CAT_DESCRI" style="shape=partialRectangle;top=0;left=0;right=0;bottom=0;html=1;align=left;verticalAlign=top;fillColor=none;spacingLeft=60;spacingRight=4;whiteSpace=wrap;overflow=hidden;rotatable=0;points=[[0,0.5],[1,0.5]];portConstraint=eastwest;dropTarget=0;strokeColor=#457B9D;fontColor=#1D3557;" parent="iSOXeTbzysZyc92H4kfC-1" vertex="1">
          <mxGeometry y="70" width="261" height="24" as="geometry" />
        </mxCell>
        <mxCell id="iSOXeTbzysZyc92H4kfC-7" value="&lt;span&gt;char var&lt;/span&gt;" style="shape=partialRectangle;top=0;left=0;bottom=0;html=1;fillColor=none;align=left;verticalAlign=top;spacingLeft=4;spacingRight=4;whiteSpace=wrap;overflow=hidden;rotatable=0;points=[];portConstraint=eastwest;part=1;strokeColor=#457B9D;fontColor=#1D3557;" parent="iSOXeTbzysZyc92H4kfC-6" vertex="1" connectable="0">
          <mxGeometry width="70" height="24" as="geometry" />
        </mxCell>
        <mxCell id="iSOXeTbzysZyc92H4kfC-20" value="&amp;nbsp; &amp;nbsp; CAT_CREDAT" style="shape=partialRectangle;top=0;left=0;right=0;bottom=0;html=1;align=left;verticalAlign=top;fillColor=none;spacingLeft=60;spacingRight=4;whiteSpace=wrap;overflow=hidden;rotatable=0;points=[[0,0.5],[1,0.5]];portConstraint=eastwest;dropTarget=0;strokeColor=#457B9D;fontColor=#1D3557;" parent="iSOXeTbzysZyc92H4kfC-1" vertex="1">
          <mxGeometry y="94" width="261" height="22" as="geometry" />
        </mxCell>
        <mxCell id="iSOXeTbzysZyc92H4kfC-21" value="timestamp" style="shape=partialRectangle;top=0;left=0;bottom=0;html=1;fillColor=none;align=left;verticalAlign=top;spacingLeft=4;spacingRight=4;whiteSpace=wrap;overflow=hidden;rotatable=0;points=[];portConstraint=eastwest;part=1;strokeColor=#457B9D;fontColor=#1D3557;" parent="iSOXeTbzysZyc92H4kfC-20" vertex="1" connectable="0">
          <mxGeometry width="70" height="22" as="geometry" />
        </mxCell>
        <mxCell id="iSOXeTbzysZyc92H4kfC-22" value="&amp;nbsp; &amp;nbsp; CAT_UPDDAT" style="shape=partialRectangle;top=0;left=0;right=0;bottom=0;html=1;align=left;verticalAlign=top;fillColor=none;spacingLeft=60;spacingRight=4;whiteSpace=wrap;overflow=hidden;rotatable=0;points=[[0,0.5],[1,0.5]];portConstraint=eastwest;dropTarget=0;strokeColor=#457B9D;fontColor=#1D3557;" parent="iSOXeTbzysZyc92H4kfC-1" vertex="1">
          <mxGeometry y="116" width="261" height="28" as="geometry" />
        </mxCell>
        <mxCell id="iSOXeTbzysZyc92H4kfC-23" value="timestamp" style="shape=partialRectangle;top=0;left=0;bottom=0;html=1;fillColor=none;align=left;verticalAlign=top;spacingLeft=4;spacingRight=4;whiteSpace=wrap;overflow=hidden;rotatable=0;points=[];portConstraint=eastwest;part=1;strokeColor=#457B9D;fontColor=#1D3557;" parent="iSOXeTbzysZyc92H4kfC-22" vertex="1" connectable="0">
          <mxGeometry width="70" height="28" as="geometry" />
        </mxCell>
        <mxCell id="I7QZOoxyqQ6AWKhXD5qM-111" style="edgeStyle=orthogonalEdgeStyle;rounded=1;orthogonalLoop=1;jettySize=auto;html=1;fillColor=#dae8fc;strokeColor=#6c8ebf;strokeWidth=2;" parent="1" source="iSOXeTbzysZyc92H4kfC-24" target="I7QZOoxyqQ6AWKhXD5qM-3" edge="1">
          <mxGeometry relative="1" as="geometry" />
        </mxCell>
        <mxCell id="iSOXeTbzysZyc92H4kfC-24" value="TCO_TEAM" style="swimlane;html=1;fontStyle=0;childLayout=stackLayout;horizontal=1;startSize=26;fillColor=#A8DADC;horizontalStack=0;resizeParent=1;resizeLast=0;collapsible=1;marginBottom=0;swimlaneFillColor=#ffffff;align=center;shadow=0;comic=0;labelBackgroundColor=none;strokeWidth=1;fontFamily=Verdana;fontSize=14;strokeColor=#457B9D;fontColor=#1D3557;" parent="1" vertex="1">
          <mxGeometry x="-620" y="-170" width="261" height="192" as="geometry">
            <mxRectangle x="100" y="120" width="90" height="26" as="alternateBounds" />
          </mxGeometry>
        </mxCell>
        <mxCell id="iSOXeTbzysZyc92H4kfC-25" value="&amp;nbsp; &amp;nbsp; &lt;u&gt;TEA_IDENTI (PK,FK)&lt;/u&gt;" style="shape=partialRectangle;top=0;left=0;right=0;bottom=1;html=1;align=left;verticalAlign=middle;fillColor=none;spacingLeft=60;spacingRight=4;whiteSpace=wrap;overflow=hidden;rotatable=0;points=[[0,0.5],[1,0.5]];portConstraint=eastwest;dropTarget=0;fontStyle=1;strokeColor=#457B9D;fontColor=#1D3557;" parent="iSOXeTbzysZyc92H4kfC-24" vertex="1">
          <mxGeometry y="26" width="261" height="44" as="geometry" />
        </mxCell>
        <mxCell id="iSOXeTbzysZyc92H4kfC-26" value="bigserial" style="shape=partialRectangle;fontStyle=1;top=0;left=0;bottom=0;html=1;fillColor=none;align=left;verticalAlign=middle;spacingLeft=4;spacingRight=4;whiteSpace=wrap;overflow=hidden;rotatable=0;points=[];portConstraint=eastwest;part=1;strokeColor=#457B9D;fontColor=#1D3557;" parent="iSOXeTbzysZyc92H4kfC-25" vertex="1" connectable="0">
          <mxGeometry width="70" height="44" as="geometry" />
        </mxCell>
        <mxCell id="iSOXeTbzysZyc92H4kfC-27" value="&amp;nbsp; &amp;nbsp; TEA_ACC_IDENTI (FK)" style="shape=partialRectangle;top=0;left=0;right=0;bottom=0;html=1;align=left;verticalAlign=top;fillColor=none;spacingLeft=60;spacingRight=4;whiteSpace=wrap;overflow=hidden;rotatable=0;points=[[0,0.5],[1,0.5]];portConstraint=eastwest;dropTarget=0;strokeColor=#457B9D;fontColor=#1D3557;" parent="iSOXeTbzysZyc92H4kfC-24" vertex="1">
          <mxGeometry y="70" width="261" height="24" as="geometry" />
        </mxCell>
        <mxCell id="iSOXeTbzysZyc92H4kfC-28" value="integer" style="shape=partialRectangle;top=0;left=0;bottom=0;html=1;fillColor=none;align=left;verticalAlign=top;spacingLeft=4;spacingRight=4;whiteSpace=wrap;overflow=hidden;rotatable=0;points=[];portConstraint=eastwest;part=1;strokeColor=#457B9D;fontColor=#1D3557;" parent="iSOXeTbzysZyc92H4kfC-27" vertex="1" connectable="0">
          <mxGeometry width="70" height="24" as="geometry" />
        </mxCell>
        <mxCell id="iSOXeTbzysZyc92H4kfC-29" value="&amp;nbsp; &amp;nbsp; TEA_NAME&lt;br&gt;" style="shape=partialRectangle;top=0;left=0;right=0;bottom=0;html=1;align=left;verticalAlign=top;fillColor=none;spacingLeft=60;spacingRight=4;whiteSpace=wrap;overflow=hidden;rotatable=0;points=[[0,0.5],[1,0.5]];portConstraint=eastwest;dropTarget=0;strokeColor=#457B9D;fontColor=#1D3557;" parent="iSOXeTbzysZyc92H4kfC-24" vertex="1">
          <mxGeometry y="94" width="261" height="24" as="geometry" />
        </mxCell>
        <mxCell id="iSOXeTbzysZyc92H4kfC-30" value="&lt;span&gt;char var&lt;/span&gt;" style="shape=partialRectangle;top=0;left=0;bottom=0;html=1;fillColor=none;align=left;verticalAlign=top;spacingLeft=4;spacingRight=4;whiteSpace=wrap;overflow=hidden;rotatable=0;points=[];portConstraint=eastwest;part=1;strokeColor=#457B9D;fontColor=#1D3557;" parent="iSOXeTbzysZyc92H4kfC-29" vertex="1" connectable="0">
          <mxGeometry width="70" height="24" as="geometry" />
        </mxCell>
        <mxCell id="iSOXeTbzysZyc92H4kfC-39" value="&lt;span&gt;&amp;nbsp; &amp;nbsp; TEA_IMAGE&lt;/span&gt;" style="shape=partialRectangle;top=0;left=0;right=0;bottom=0;html=1;align=left;verticalAlign=top;fillColor=#dae8fc;spacingLeft=60;spacingRight=4;whiteSpace=wrap;overflow=hidden;rotatable=0;points=[[0,0.5],[1,0.5]];portConstraint=eastwest;dropTarget=0;strokeColor=#6c8ebf;" parent="iSOXeTbzysZyc92H4kfC-24" vertex="1">
          <mxGeometry y="118" width="261" height="24" as="geometry" />
        </mxCell>
        <mxCell id="iSOXeTbzysZyc92H4kfC-40" value="char var" style="shape=partialRectangle;top=0;left=0;bottom=0;html=1;fillColor=none;align=left;verticalAlign=top;spacingLeft=4;spacingRight=4;whiteSpace=wrap;overflow=hidden;rotatable=0;points=[];portConstraint=eastwest;part=1;strokeColor=#457B9D;fontColor=#1D3557;" parent="iSOXeTbzysZyc92H4kfC-39" vertex="1" connectable="0">
          <mxGeometry width="70" height="24" as="geometry" />
        </mxCell>
        <mxCell id="iSOXeTbzysZyc92H4kfC-43" value="&amp;nbsp; &amp;nbsp; TEA_CREDAT" style="shape=partialRectangle;top=0;left=0;right=0;bottom=0;html=1;align=left;verticalAlign=top;fillColor=none;spacingLeft=60;spacingRight=4;whiteSpace=wrap;overflow=hidden;rotatable=0;points=[[0,0.5],[1,0.5]];portConstraint=eastwest;dropTarget=0;strokeColor=#457B9D;fontColor=#1D3557;" parent="iSOXeTbzysZyc92H4kfC-24" vertex="1">
          <mxGeometry y="142" width="261" height="22" as="geometry" />
        </mxCell>
        <mxCell id="iSOXeTbzysZyc92H4kfC-44" value="timestamp" style="shape=partialRectangle;top=0;left=0;bottom=0;html=1;fillColor=none;align=left;verticalAlign=top;spacingLeft=4;spacingRight=4;whiteSpace=wrap;overflow=hidden;rotatable=0;points=[];portConstraint=eastwest;part=1;strokeColor=#457B9D;fontColor=#1D3557;" parent="iSOXeTbzysZyc92H4kfC-43" vertex="1" connectable="0">
          <mxGeometry width="70" height="22" as="geometry" />
        </mxCell>
        <mxCell id="iSOXeTbzysZyc92H4kfC-45" value="&amp;nbsp; &amp;nbsp; TEA_UPDDAT" style="shape=partialRectangle;top=0;left=0;right=0;bottom=0;html=1;align=left;verticalAlign=top;fillColor=none;spacingLeft=60;spacingRight=4;whiteSpace=wrap;overflow=hidden;rotatable=0;points=[[0,0.5],[1,0.5]];portConstraint=eastwest;dropTarget=0;strokeColor=#457B9D;fontColor=#1D3557;" parent="iSOXeTbzysZyc92H4kfC-24" vertex="1">
          <mxGeometry y="164" width="261" height="28" as="geometry" />
        </mxCell>
        <mxCell id="iSOXeTbzysZyc92H4kfC-46" value="timestamp" style="shape=partialRectangle;top=0;left=0;bottom=0;html=1;fillColor=none;align=left;verticalAlign=top;spacingLeft=4;spacingRight=4;whiteSpace=wrap;overflow=hidden;rotatable=0;points=[];portConstraint=eastwest;part=1;strokeColor=#457B9D;fontColor=#1D3557;" parent="iSOXeTbzysZyc92H4kfC-45" vertex="1" connectable="0">
          <mxGeometry width="70" height="28" as="geometry" />
        </mxCell>
        <mxCell id="iSOXeTbzysZyc92H4kfC-47" value="TCO_CONQUI" style="swimlane;html=1;fontStyle=0;childLayout=stackLayout;horizontal=1;startSize=26;fillColor=#A8DADC;horizontalStack=0;resizeParent=1;resizeLast=0;collapsible=1;marginBottom=0;swimlaneFillColor=#ffffff;align=center;shadow=0;comic=0;labelBackgroundColor=none;strokeWidth=1;fontFamily=Verdana;fontSize=14;strokeColor=#457B9D;fontColor=#1D3557;" parent="1" vertex="1">
          <mxGeometry x="-220" y="130" width="261" height="192" as="geometry">
            <mxRectangle x="100" y="120" width="90" height="26" as="alternateBounds" />
          </mxGeometry>
        </mxCell>
        <mxCell id="iSOXeTbzysZyc92H4kfC-48" value="&amp;nbsp; &amp;nbsp; &lt;u&gt;CON_IDENTI (PK,FK)&lt;/u&gt;" style="shape=partialRectangle;top=0;left=0;right=0;bottom=1;html=1;align=left;verticalAlign=middle;fillColor=none;spacingLeft=60;spacingRight=4;whiteSpace=wrap;overflow=hidden;rotatable=0;points=[[0,0.5],[1,0.5]];portConstraint=eastwest;dropTarget=0;fontStyle=1;strokeColor=#457B9D;fontColor=#1D3557;" parent="iSOXeTbzysZyc92H4kfC-47" vertex="1">
          <mxGeometry y="26" width="261" height="44" as="geometry" />
        </mxCell>
        <mxCell id="iSOXeTbzysZyc92H4kfC-49" value="bigserial" style="shape=partialRectangle;fontStyle=1;top=0;left=0;bottom=0;html=1;fillColor=none;align=left;verticalAlign=middle;spacingLeft=4;spacingRight=4;whiteSpace=wrap;overflow=hidden;rotatable=0;points=[];portConstraint=eastwest;part=1;strokeColor=#457B9D;fontColor=#1D3557;" parent="iSOXeTbzysZyc92H4kfC-48" vertex="1" connectable="0">
          <mxGeometry width="70" height="44" as="geometry" />
        </mxCell>
        <mxCell id="iSOXeTbzysZyc92H4kfC-50" value="&amp;nbsp; &amp;nbsp; CON_ACC_IDENTI (FK)" style="shape=partialRectangle;top=0;left=0;right=0;bottom=0;html=1;align=left;verticalAlign=top;fillColor=none;spacingLeft=60;spacingRight=4;whiteSpace=wrap;overflow=hidden;rotatable=0;points=[[0,0.5],[1,0.5]];portConstraint=eastwest;dropTarget=0;strokeColor=#457B9D;fontColor=#1D3557;" parent="iSOXeTbzysZyc92H4kfC-47" vertex="1">
          <mxGeometry y="70" width="261" height="24" as="geometry" />
        </mxCell>
        <mxCell id="iSOXeTbzysZyc92H4kfC-51" value="integer" style="shape=partialRectangle;top=0;left=0;bottom=0;html=1;fillColor=none;align=left;verticalAlign=top;spacingLeft=4;spacingRight=4;whiteSpace=wrap;overflow=hidden;rotatable=0;points=[];portConstraint=eastwest;part=1;strokeColor=#457B9D;fontColor=#1D3557;" parent="iSOXeTbzysZyc92H4kfC-50" vertex="1" connectable="0">
          <mxGeometry width="70" height="24" as="geometry" />
        </mxCell>
        <mxCell id="iSOXeTbzysZyc92H4kfC-52" value="&amp;nbsp; &amp;nbsp; CON_DESCRI" style="shape=partialRectangle;top=0;left=0;right=0;bottom=0;html=1;align=left;verticalAlign=top;fillColor=none;spacingLeft=60;spacingRight=4;whiteSpace=wrap;overflow=hidden;rotatable=0;points=[[0,0.5],[1,0.5]];portConstraint=eastwest;dropTarget=0;strokeColor=#457B9D;fontColor=#1D3557;" parent="iSOXeTbzysZyc92H4kfC-47" vertex="1">
          <mxGeometry y="94" width="261" height="24" as="geometry" />
        </mxCell>
        <mxCell id="iSOXeTbzysZyc92H4kfC-53" value="&lt;span&gt;char var&lt;/span&gt;" style="shape=partialRectangle;top=0;left=0;bottom=0;html=1;fillColor=none;align=left;verticalAlign=top;spacingLeft=4;spacingRight=4;whiteSpace=wrap;overflow=hidden;rotatable=0;points=[];portConstraint=eastwest;part=1;strokeColor=#457B9D;fontColor=#1D3557;" parent="iSOXeTbzysZyc92H4kfC-52" vertex="1" connectable="0">
          <mxGeometry width="70" height="24" as="geometry" />
        </mxCell>
        <mxCell id="iSOXeTbzysZyc92H4kfC-62" value="&lt;span&gt;&amp;nbsp; &amp;nbsp; CON_IMAGE&lt;/span&gt;" style="shape=partialRectangle;top=0;left=0;right=0;bottom=0;html=1;align=left;verticalAlign=top;fillColor=#dae8fc;spacingLeft=60;spacingRight=4;whiteSpace=wrap;overflow=hidden;rotatable=0;points=[[0,0.5],[1,0.5]];portConstraint=eastwest;dropTarget=0;strokeColor=#6c8ebf;" parent="iSOXeTbzysZyc92H4kfC-47" vertex="1">
          <mxGeometry y="118" width="261" height="24" as="geometry" />
        </mxCell>
        <mxCell id="iSOXeTbzysZyc92H4kfC-63" value="char var" style="shape=partialRectangle;top=0;left=0;bottom=0;html=1;fillColor=none;align=left;verticalAlign=top;spacingLeft=4;spacingRight=4;whiteSpace=wrap;overflow=hidden;rotatable=0;points=[];portConstraint=eastwest;part=1;strokeColor=#457B9D;fontColor=#1D3557;" parent="iSOXeTbzysZyc92H4kfC-62" vertex="1" connectable="0">
          <mxGeometry width="70" height="24" as="geometry" />
        </mxCell>
        <mxCell id="iSOXeTbzysZyc92H4kfC-66" value="&amp;nbsp; &amp;nbsp; CON_CREDAT" style="shape=partialRectangle;top=0;left=0;right=0;bottom=0;html=1;align=left;verticalAlign=top;fillColor=none;spacingLeft=60;spacingRight=4;whiteSpace=wrap;overflow=hidden;rotatable=0;points=[[0,0.5],[1,0.5]];portConstraint=eastwest;dropTarget=0;strokeColor=#457B9D;fontColor=#1D3557;" parent="iSOXeTbzysZyc92H4kfC-47" vertex="1">
          <mxGeometry y="142" width="261" height="22" as="geometry" />
        </mxCell>
        <mxCell id="iSOXeTbzysZyc92H4kfC-67" value="timestamp" style="shape=partialRectangle;top=0;left=0;bottom=0;html=1;fillColor=none;align=left;verticalAlign=top;spacingLeft=4;spacingRight=4;whiteSpace=wrap;overflow=hidden;rotatable=0;points=[];portConstraint=eastwest;part=1;strokeColor=#457B9D;fontColor=#1D3557;" parent="iSOXeTbzysZyc92H4kfC-66" vertex="1" connectable="0">
          <mxGeometry width="70" height="22" as="geometry" />
        </mxCell>
        <mxCell id="iSOXeTbzysZyc92H4kfC-68" value="&amp;nbsp; &amp;nbsp; CON_UPDDAT" style="shape=partialRectangle;top=0;left=0;right=0;bottom=0;html=1;align=left;verticalAlign=top;fillColor=none;spacingLeft=60;spacingRight=4;whiteSpace=wrap;overflow=hidden;rotatable=0;points=[[0,0.5],[1,0.5]];portConstraint=eastwest;dropTarget=0;strokeColor=#457B9D;fontColor=#1D3557;" parent="iSOXeTbzysZyc92H4kfC-47" vertex="1">
          <mxGeometry y="164" width="261" height="28" as="geometry" />
        </mxCell>
        <mxCell id="iSOXeTbzysZyc92H4kfC-69" value="timestamp" style="shape=partialRectangle;top=0;left=0;bottom=0;html=1;fillColor=none;align=left;verticalAlign=top;spacingLeft=4;spacingRight=4;whiteSpace=wrap;overflow=hidden;rotatable=0;points=[];portConstraint=eastwest;part=1;strokeColor=#457B9D;fontColor=#1D3557;" parent="iSOXeTbzysZyc92H4kfC-68" vertex="1" connectable="0">
          <mxGeometry width="70" height="28" as="geometry" />
        </mxCell>
        <mxCell id="iSOXeTbzysZyc92H4kfC-71" value="TCO_ACTION" style="swimlane;html=1;fontStyle=0;childLayout=stackLayout;horizontal=1;startSize=26;fillColor=#A8DADC;horizontalStack=0;resizeParent=1;resizeLast=0;collapsible=1;marginBottom=0;swimlaneFillColor=#ffffff;align=center;shadow=0;comic=0;labelBackgroundColor=none;strokeWidth=1;fontFamily=Verdana;fontSize=14;strokeColor=#457B9D;fontColor=#1D3557;" parent="1" vertex="1">
          <mxGeometry x="-250" y="-650" width="261" height="218" as="geometry">
            <mxRectangle x="100" y="120" width="90" height="26" as="alternateBounds" />
          </mxGeometry>
        </mxCell>
        <mxCell id="iSOXeTbzysZyc92H4kfC-72" value="&amp;nbsp; &amp;nbsp; &lt;u&gt;ACT_IDENTI (PK,FK)&lt;/u&gt;" style="shape=partialRectangle;top=0;left=0;right=0;bottom=1;html=1;align=left;verticalAlign=middle;fillColor=none;spacingLeft=60;spacingRight=4;whiteSpace=wrap;overflow=hidden;rotatable=0;points=[[0,0.5],[1,0.5]];portConstraint=eastwest;dropTarget=0;fontStyle=1;strokeColor=#457B9D;fontColor=#1D3557;" parent="iSOXeTbzysZyc92H4kfC-71" vertex="1">
          <mxGeometry y="26" width="261" height="44" as="geometry" />
        </mxCell>
        <mxCell id="iSOXeTbzysZyc92H4kfC-73" value="bigserial" style="shape=partialRectangle;fontStyle=1;top=0;left=0;bottom=0;html=1;fillColor=none;align=left;verticalAlign=middle;spacingLeft=4;spacingRight=4;whiteSpace=wrap;overflow=hidden;rotatable=0;points=[];portConstraint=eastwest;part=1;strokeColor=#457B9D;fontColor=#1D3557;" parent="iSOXeTbzysZyc92H4kfC-72" vertex="1" connectable="0">
          <mxGeometry width="70" height="44" as="geometry" />
        </mxCell>
        <mxCell id="I7QZOoxyqQ6AWKhXD5qM-145" value="&amp;nbsp; &amp;nbsp; ACT_USU_IDENTI (FK)" style="shape=partialRectangle;top=0;left=0;right=0;bottom=0;html=1;align=left;verticalAlign=top;fillColor=none;spacingLeft=60;spacingRight=4;whiteSpace=wrap;overflow=hidden;rotatable=0;points=[[0,0.5],[1,0.5]];portConstraint=eastwest;dropTarget=0;strokeColor=#457B9D;fontColor=#1D3557;" parent="iSOXeTbzysZyc92H4kfC-71" vertex="1">
          <mxGeometry y="70" width="261" height="24" as="geometry" />
        </mxCell>
        <mxCell id="I7QZOoxyqQ6AWKhXD5qM-146" value="integer" style="shape=partialRectangle;top=0;left=0;bottom=0;html=1;fillColor=none;align=left;verticalAlign=top;spacingLeft=4;spacingRight=4;whiteSpace=wrap;overflow=hidden;rotatable=0;points=[];portConstraint=eastwest;part=1;strokeColor=#457B9D;fontColor=#1D3557;" parent="I7QZOoxyqQ6AWKhXD5qM-145" vertex="1" connectable="0">
          <mxGeometry width="70" height="24" as="geometry" />
        </mxCell>
        <mxCell id="iSOXeTbzysZyc92H4kfC-74" value="&amp;nbsp; &amp;nbsp; ACT_POS_IDENTI (FK)" style="shape=partialRectangle;top=0;left=0;right=0;bottom=0;html=1;align=left;verticalAlign=top;fillColor=none;spacingLeft=60;spacingRight=4;whiteSpace=wrap;overflow=hidden;rotatable=0;points=[[0,0.5],[1,0.5]];portConstraint=eastwest;dropTarget=0;strokeColor=#457B9D;fontColor=#1D3557;" parent="iSOXeTbzysZyc92H4kfC-71" vertex="1">
          <mxGeometry y="94" width="261" height="24" as="geometry" />
        </mxCell>
        <mxCell id="iSOXeTbzysZyc92H4kfC-75" value="integer" style="shape=partialRectangle;top=0;left=0;bottom=0;html=1;fillColor=none;align=left;verticalAlign=top;spacingLeft=4;spacingRight=4;whiteSpace=wrap;overflow=hidden;rotatable=0;points=[];portConstraint=eastwest;part=1;strokeColor=#457B9D;fontColor=#1D3557;" parent="iSOXeTbzysZyc92H4kfC-74" vertex="1" connectable="0">
          <mxGeometry width="70" height="24" as="geometry" />
        </mxCell>
        <mxCell id="iSOXeTbzysZyc92H4kfC-76" value="&amp;nbsp; &amp;nbsp; ACT_LIKE" style="shape=partialRectangle;top=0;left=0;right=0;bottom=0;html=1;align=left;verticalAlign=top;fillColor=none;spacingLeft=60;spacingRight=4;whiteSpace=wrap;overflow=hidden;rotatable=0;points=[[0,0.5],[1,0.5]];portConstraint=eastwest;dropTarget=0;strokeColor=#457B9D;fontColor=#1D3557;" parent="iSOXeTbzysZyc92H4kfC-71" vertex="1">
          <mxGeometry y="118" width="261" height="24" as="geometry" />
        </mxCell>
        <mxCell id="iSOXeTbzysZyc92H4kfC-77" value="boolean" style="shape=partialRectangle;top=0;left=0;bottom=0;html=1;fillColor=none;align=left;verticalAlign=top;spacingLeft=4;spacingRight=4;whiteSpace=wrap;overflow=hidden;rotatable=0;points=[];portConstraint=eastwest;part=1;strokeColor=#457B9D;fontColor=#1D3557;" parent="iSOXeTbzysZyc92H4kfC-76" vertex="1" connectable="0">
          <mxGeometry width="70" height="24" as="geometry" />
        </mxCell>
        <mxCell id="iSOXeTbzysZyc92H4kfC-80" value="&amp;nbsp; &amp;nbsp; ACT_COMENT" style="shape=partialRectangle;top=0;left=0;right=0;bottom=0;html=1;align=left;verticalAlign=top;fillColor=none;spacingLeft=60;spacingRight=4;whiteSpace=wrap;overflow=hidden;rotatable=0;points=[[0,0.5],[1,0.5]];portConstraint=eastwest;dropTarget=0;strokeColor=#457B9D;fontColor=#1D3557;" parent="iSOXeTbzysZyc92H4kfC-71" vertex="1">
          <mxGeometry y="142" width="261" height="24" as="geometry" />
        </mxCell>
        <mxCell id="iSOXeTbzysZyc92H4kfC-81" value="char var" style="shape=partialRectangle;top=0;left=0;bottom=0;html=1;fillColor=none;align=left;verticalAlign=top;spacingLeft=4;spacingRight=4;whiteSpace=wrap;overflow=hidden;rotatable=0;points=[];portConstraint=eastwest;part=1;strokeColor=#457B9D;fontColor=#1D3557;" parent="iSOXeTbzysZyc92H4kfC-80" vertex="1" connectable="0">
          <mxGeometry width="70" height="24" as="geometry" />
        </mxCell>
        <mxCell id="iSOXeTbzysZyc92H4kfC-84" value="&amp;nbsp; &amp;nbsp; ACT_CREDAT" style="shape=partialRectangle;top=0;left=0;right=0;bottom=0;html=1;align=left;verticalAlign=top;fillColor=none;spacingLeft=60;spacingRight=4;whiteSpace=wrap;overflow=hidden;rotatable=0;points=[[0,0.5],[1,0.5]];portConstraint=eastwest;dropTarget=0;strokeColor=#457B9D;fontColor=#1D3557;" parent="iSOXeTbzysZyc92H4kfC-71" vertex="1">
          <mxGeometry y="166" width="261" height="22" as="geometry" />
        </mxCell>
        <mxCell id="iSOXeTbzysZyc92H4kfC-85" value="timestamp" style="shape=partialRectangle;top=0;left=0;bottom=0;html=1;fillColor=none;align=left;verticalAlign=top;spacingLeft=4;spacingRight=4;whiteSpace=wrap;overflow=hidden;rotatable=0;points=[];portConstraint=eastwest;part=1;strokeColor=#457B9D;fontColor=#1D3557;" parent="iSOXeTbzysZyc92H4kfC-84" vertex="1" connectable="0">
          <mxGeometry width="70" height="22" as="geometry" />
        </mxCell>
        <mxCell id="iSOXeTbzysZyc92H4kfC-86" value="&amp;nbsp; &amp;nbsp; ACT_UPDDAT" style="shape=partialRectangle;top=0;left=0;right=0;bottom=0;html=1;align=left;verticalAlign=top;fillColor=none;spacingLeft=60;spacingRight=4;whiteSpace=wrap;overflow=hidden;rotatable=0;points=[[0,0.5],[1,0.5]];portConstraint=eastwest;dropTarget=0;strokeColor=#457B9D;fontColor=#1D3557;" parent="iSOXeTbzysZyc92H4kfC-71" vertex="1">
          <mxGeometry y="188" width="261" height="30" as="geometry" />
        </mxCell>
        <mxCell id="iSOXeTbzysZyc92H4kfC-87" value="timestamp" style="shape=partialRectangle;top=0;left=0;bottom=0;html=1;fillColor=none;align=left;verticalAlign=top;spacingLeft=4;spacingRight=4;whiteSpace=wrap;overflow=hidden;rotatable=0;points=[];portConstraint=eastwest;part=1;strokeColor=#457B9D;fontColor=#1D3557;" parent="iSOXeTbzysZyc92H4kfC-86" vertex="1" connectable="0">
          <mxGeometry width="70" height="30" as="geometry" />
        </mxCell>
        <mxCell id="I7QZOoxyqQ6AWKhXD5qM-3" value="TCO_MEMBER" style="swimlane;html=1;fontStyle=0;childLayout=stackLayout;horizontal=1;startSize=26;horizontalStack=0;resizeParent=1;resizeLast=0;collapsible=1;marginBottom=0;swimlaneFillColor=#ffffff;align=center;shadow=0;comic=0;labelBackgroundColor=none;strokeWidth=1;fontFamily=Verdana;fontSize=14;strokeColor=#457B9D;fontColor=#1D3557;fillColor=#A8DADC;" parent="1" vertex="1">
          <mxGeometry x="-620" y="300" width="261" height="216" as="geometry">
            <mxRectangle x="100" y="120" width="90" height="26" as="alternateBounds" />
          </mxGeometry>
        </mxCell>
        <mxCell id="I7QZOoxyqQ6AWKhXD5qM-4" value="&amp;nbsp; &amp;nbsp; &lt;u&gt;MBR_IDENTI (PK,FK)&lt;/u&gt;" style="shape=partialRectangle;top=0;left=0;right=0;bottom=1;html=1;align=left;verticalAlign=middle;fillColor=none;spacingLeft=60;spacingRight=4;whiteSpace=wrap;overflow=hidden;rotatable=0;points=[[0,0.5],[1,0.5]];portConstraint=eastwest;dropTarget=0;fontStyle=1;strokeColor=#457B9D;fontColor=#1D3557;" parent="I7QZOoxyqQ6AWKhXD5qM-3" vertex="1">
          <mxGeometry y="26" width="261" height="44" as="geometry" />
        </mxCell>
        <mxCell id="I7QZOoxyqQ6AWKhXD5qM-5" value="bigserial" style="shape=partialRectangle;fontStyle=1;top=0;left=0;bottom=0;html=1;fillColor=none;align=left;verticalAlign=middle;spacingLeft=4;spacingRight=4;whiteSpace=wrap;overflow=hidden;rotatable=0;points=[];portConstraint=eastwest;part=1;strokeColor=#457B9D;fontColor=#1D3557;" parent="I7QZOoxyqQ6AWKhXD5qM-4" vertex="1" connectable="0">
          <mxGeometry width="70" height="44" as="geometry" />
        </mxCell>
        <mxCell id="I7QZOoxyqQ6AWKhXD5qM-6" value="&amp;nbsp; &amp;nbsp; MBR_TEA_IDENTI (FK)" style="shape=partialRectangle;top=0;left=0;right=0;bottom=0;html=1;align=left;verticalAlign=top;fillColor=none;spacingLeft=60;spacingRight=4;whiteSpace=wrap;overflow=hidden;rotatable=0;points=[[0,0.5],[1,0.5]];portConstraint=eastwest;dropTarget=0;strokeColor=#457B9D;fontColor=#1D3557;" parent="I7QZOoxyqQ6AWKhXD5qM-3" vertex="1">
          <mxGeometry y="70" width="261" height="24" as="geometry" />
        </mxCell>
        <mxCell id="I7QZOoxyqQ6AWKhXD5qM-7" value="integer" style="shape=partialRectangle;top=0;left=0;bottom=0;html=1;fillColor=none;align=left;verticalAlign=top;spacingLeft=4;spacingRight=4;whiteSpace=wrap;overflow=hidden;rotatable=0;points=[];portConstraint=eastwest;part=1;strokeColor=#457B9D;fontColor=#1D3557;" parent="I7QZOoxyqQ6AWKhXD5qM-6" vertex="1" connectable="0">
          <mxGeometry width="70" height="24" as="geometry" />
        </mxCell>
        <mxCell id="I7QZOoxyqQ6AWKhXD5qM-8" value="&amp;nbsp; &amp;nbsp; MBR_USU_IDENTI (FK)" style="shape=partialRectangle;top=0;left=0;right=0;bottom=0;html=1;align=left;verticalAlign=top;fillColor=none;spacingLeft=60;spacingRight=4;whiteSpace=wrap;overflow=hidden;rotatable=0;points=[[0,0.5],[1,0.5]];portConstraint=eastwest;dropTarget=0;strokeColor=#457B9D;fontColor=#1D3557;" parent="I7QZOoxyqQ6AWKhXD5qM-3" vertex="1">
          <mxGeometry y="94" width="261" height="24" as="geometry" />
        </mxCell>
        <mxCell id="I7QZOoxyqQ6AWKhXD5qM-9" value="integer" style="shape=partialRectangle;top=0;left=0;bottom=0;html=1;fillColor=none;align=left;verticalAlign=top;spacingLeft=4;spacingRight=4;whiteSpace=wrap;overflow=hidden;rotatable=0;points=[];portConstraint=eastwest;part=1;strokeColor=#457B9D;fontColor=#1D3557;" parent="I7QZOoxyqQ6AWKhXD5qM-8" vertex="1" connectable="0">
          <mxGeometry width="70" height="24" as="geometry" />
        </mxCell>
        <mxCell id="I7QZOoxyqQ6AWKhXD5qM-17" value="&amp;nbsp; &amp;nbsp; MBR_TYPE" style="shape=partialRectangle;top=0;left=0;right=0;bottom=0;html=1;align=left;verticalAlign=top;fillColor=none;spacingLeft=60;spacingRight=4;whiteSpace=wrap;overflow=hidden;rotatable=0;points=[[0,0.5],[1,0.5]];portConstraint=eastwest;dropTarget=0;strokeColor=#457B9D;fontColor=#1D3557;" parent="I7QZOoxyqQ6AWKhXD5qM-3" vertex="1">
          <mxGeometry y="118" width="261" height="24" as="geometry" />
        </mxCell>
        <mxCell id="I7QZOoxyqQ6AWKhXD5qM-18" value="&lt;span&gt;char var&lt;/span&gt;" style="shape=partialRectangle;top=0;left=0;bottom=0;html=1;fillColor=none;align=left;verticalAlign=top;spacingLeft=4;spacingRight=4;whiteSpace=wrap;overflow=hidden;rotatable=0;points=[];portConstraint=eastwest;part=1;strokeColor=#457B9D;fontColor=#1D3557;" parent="I7QZOoxyqQ6AWKhXD5qM-17" vertex="1" connectable="0">
          <mxGeometry width="70" height="24" as="geometry" />
        </mxCell>
        <mxCell id="I7QZOoxyqQ6AWKhXD5qM-19" value="&amp;nbsp; &amp;nbsp; MBR_STATUS" style="shape=partialRectangle;top=0;left=0;right=0;bottom=0;html=1;align=left;verticalAlign=top;fillColor=none;spacingLeft=60;spacingRight=4;whiteSpace=wrap;overflow=hidden;rotatable=0;points=[[0,0.5],[1,0.5]];portConstraint=eastwest;dropTarget=0;strokeColor=#457B9D;fontColor=#1D3557;" parent="I7QZOoxyqQ6AWKhXD5qM-3" vertex="1">
          <mxGeometry y="142" width="261" height="24" as="geometry" />
        </mxCell>
        <mxCell id="I7QZOoxyqQ6AWKhXD5qM-20" value="&lt;span&gt;char var&lt;/span&gt;" style="shape=partialRectangle;top=0;left=0;bottom=0;html=1;fillColor=none;align=left;verticalAlign=top;spacingLeft=4;spacingRight=4;whiteSpace=wrap;overflow=hidden;rotatable=0;points=[];portConstraint=eastwest;part=1;strokeColor=#457B9D;fontColor=#1D3557;" parent="I7QZOoxyqQ6AWKhXD5qM-19" vertex="1" connectable="0">
          <mxGeometry width="70" height="24" as="geometry" />
        </mxCell>
        <mxCell id="I7QZOoxyqQ6AWKhXD5qM-12" value="&amp;nbsp; &amp;nbsp; MBR_CREDAT" style="shape=partialRectangle;top=0;left=0;right=0;bottom=0;html=1;align=left;verticalAlign=top;fillColor=none;spacingLeft=60;spacingRight=4;whiteSpace=wrap;overflow=hidden;rotatable=0;points=[[0,0.5],[1,0.5]];portConstraint=eastwest;dropTarget=0;strokeColor=#457B9D;fontColor=#1D3557;" parent="I7QZOoxyqQ6AWKhXD5qM-3" vertex="1">
          <mxGeometry y="166" width="261" height="22" as="geometry" />
        </mxCell>
        <mxCell id="I7QZOoxyqQ6AWKhXD5qM-13" value="timestamp" style="shape=partialRectangle;top=0;left=0;bottom=0;html=1;fillColor=none;align=left;verticalAlign=top;spacingLeft=4;spacingRight=4;whiteSpace=wrap;overflow=hidden;rotatable=0;points=[];portConstraint=eastwest;part=1;strokeColor=#457B9D;fontColor=#1D3557;" parent="I7QZOoxyqQ6AWKhXD5qM-12" vertex="1" connectable="0">
          <mxGeometry width="70" height="22" as="geometry" />
        </mxCell>
        <mxCell id="I7QZOoxyqQ6AWKhXD5qM-14" value="&amp;nbsp; &amp;nbsp; MBR_UPDDAT" style="shape=partialRectangle;top=0;left=0;right=0;bottom=0;html=1;align=left;verticalAlign=top;fillColor=none;spacingLeft=60;spacingRight=4;whiteSpace=wrap;overflow=hidden;rotatable=0;points=[[0,0.5],[1,0.5]];portConstraint=eastwest;dropTarget=0;strokeColor=#457B9D;fontColor=#1D3557;" parent="I7QZOoxyqQ6AWKhXD5qM-3" vertex="1">
          <mxGeometry y="188" width="261" height="28" as="geometry" />
        </mxCell>
        <mxCell id="I7QZOoxyqQ6AWKhXD5qM-15" value="timestamp" style="shape=partialRectangle;top=0;left=0;bottom=0;html=1;fillColor=none;align=left;verticalAlign=top;spacingLeft=4;spacingRight=4;whiteSpace=wrap;overflow=hidden;rotatable=0;points=[];portConstraint=eastwest;part=1;strokeColor=#457B9D;fontColor=#1D3557;" parent="I7QZOoxyqQ6AWKhXD5qM-14" vertex="1" connectable="0">
          <mxGeometry width="70" height="28" as="geometry" />
        </mxCell>
        <mxCell id="I7QZOoxyqQ6AWKhXD5qM-23" value="TCO_FIELDS" style="swimlane;html=1;fontStyle=0;childLayout=stackLayout;horizontal=1;startSize=26;fillColor=#A8DADC;horizontalStack=0;resizeParent=1;resizeLast=0;collapsible=1;marginBottom=0;swimlaneFillColor=#ffffff;align=center;shadow=0;comic=0;labelBackgroundColor=none;strokeWidth=1;fontFamily=Verdana;fontSize=14;strokeColor=#457B9D;fontColor=#1D3557;" parent="1" vertex="1">
          <mxGeometry x="-1040.5" y="378" width="261" height="150" as="geometry">
            <mxRectangle x="100" y="120" width="90" height="26" as="alternateBounds" />
          </mxGeometry>
        </mxCell>
        <mxCell id="I7QZOoxyqQ6AWKhXD5qM-24" value="&amp;nbsp; &amp;nbsp; &lt;u&gt;FIE_IDENTI (PK,FK)&lt;/u&gt;" style="shape=partialRectangle;top=0;left=0;right=0;bottom=1;html=1;align=left;verticalAlign=middle;fillColor=none;spacingLeft=60;spacingRight=4;whiteSpace=wrap;overflow=hidden;rotatable=0;points=[[0,0.5],[1,0.5]];portConstraint=eastwest;dropTarget=0;fontStyle=1;strokeColor=#457B9D;fontColor=#1D3557;" parent="I7QZOoxyqQ6AWKhXD5qM-23" vertex="1">
          <mxGeometry y="26" width="261" height="44" as="geometry" />
        </mxCell>
        <mxCell id="I7QZOoxyqQ6AWKhXD5qM-25" value="bigserial" style="shape=partialRectangle;fontStyle=1;top=0;left=0;bottom=0;html=1;fillColor=none;align=left;verticalAlign=middle;spacingLeft=4;spacingRight=4;whiteSpace=wrap;overflow=hidden;rotatable=0;points=[];portConstraint=eastwest;part=1;strokeColor=#457B9D;fontColor=#1D3557;" parent="I7QZOoxyqQ6AWKhXD5qM-24" vertex="1" connectable="0">
          <mxGeometry width="70" height="44" as="geometry" />
        </mxCell>
        <mxCell id="I7QZOoxyqQ6AWKhXD5qM-26" value="&amp;nbsp; &amp;nbsp; FIE_DESCRI" style="shape=partialRectangle;top=0;left=0;right=0;bottom=0;html=1;align=left;verticalAlign=top;fillColor=none;spacingLeft=60;spacingRight=4;whiteSpace=wrap;overflow=hidden;rotatable=0;points=[[0,0.5],[1,0.5]];portConstraint=eastwest;dropTarget=0;strokeColor=#457B9D;fontColor=#1D3557;" parent="I7QZOoxyqQ6AWKhXD5qM-23" vertex="1">
          <mxGeometry y="70" width="261" height="24" as="geometry" />
        </mxCell>
        <mxCell id="I7QZOoxyqQ6AWKhXD5qM-27" value="&lt;span&gt;char var&lt;/span&gt;" style="shape=partialRectangle;top=0;left=0;bottom=0;html=1;fillColor=none;align=left;verticalAlign=top;spacingLeft=4;spacingRight=4;whiteSpace=wrap;overflow=hidden;rotatable=0;points=[];portConstraint=eastwest;part=1;strokeColor=#457B9D;fontColor=#1D3557;" parent="I7QZOoxyqQ6AWKhXD5qM-26" vertex="1" connectable="0">
          <mxGeometry width="70" height="24" as="geometry" />
        </mxCell>
        <mxCell id="I7QZOoxyqQ6AWKhXD5qM-93" value="&amp;nbsp; &amp;nbsp; FIE_UPDDAT" style="shape=partialRectangle;top=0;left=0;right=0;bottom=0;html=1;align=left;verticalAlign=top;fillColor=none;spacingLeft=60;spacingRight=4;whiteSpace=wrap;overflow=hidden;rotatable=0;points=[[0,0.5],[1,0.5]];portConstraint=eastwest;dropTarget=0;strokeColor=#457B9D;fontColor=#1D3557;" parent="I7QZOoxyqQ6AWKhXD5qM-23" vertex="1">
          <mxGeometry y="94" width="261" height="28" as="geometry" />
        </mxCell>
        <mxCell id="I7QZOoxyqQ6AWKhXD5qM-94" value="timestamp" style="shape=partialRectangle;top=0;left=0;bottom=0;html=1;fillColor=none;align=left;verticalAlign=top;spacingLeft=4;spacingRight=4;whiteSpace=wrap;overflow=hidden;rotatable=0;points=[];portConstraint=eastwest;part=1;strokeColor=#457B9D;fontColor=#1D3557;" parent="I7QZOoxyqQ6AWKhXD5qM-93" vertex="1" connectable="0">
          <mxGeometry width="70" height="28" as="geometry" />
        </mxCell>
        <mxCell id="I7QZOoxyqQ6AWKhXD5qM-95" value="&amp;nbsp; &amp;nbsp; FIE_CREDAT" style="shape=partialRectangle;top=0;left=0;right=0;bottom=0;html=1;align=left;verticalAlign=top;fillColor=none;spacingLeft=60;spacingRight=4;whiteSpace=wrap;overflow=hidden;rotatable=0;points=[[0,0.5],[1,0.5]];portConstraint=eastwest;dropTarget=0;strokeColor=#457B9D;fontColor=#1D3557;" parent="I7QZOoxyqQ6AWKhXD5qM-23" vertex="1">
          <mxGeometry y="122" width="261" height="28" as="geometry" />
        </mxCell>
        <mxCell id="I7QZOoxyqQ6AWKhXD5qM-96" value="timestamp" style="shape=partialRectangle;top=0;left=0;bottom=0;html=1;fillColor=none;align=left;verticalAlign=top;spacingLeft=4;spacingRight=4;whiteSpace=wrap;overflow=hidden;rotatable=0;points=[];portConstraint=eastwest;part=1;strokeColor=#457B9D;fontColor=#1D3557;" parent="I7QZOoxyqQ6AWKhXD5qM-95" vertex="1" connectable="0">
          <mxGeometry width="70" height="28" as="geometry" />
        </mxCell>
        <mxCell id="I7QZOoxyqQ6AWKhXD5qM-35" value="TCO_RECAFI" style="swimlane;html=1;fontStyle=0;childLayout=stackLayout;horizontal=1;startSize=26;fillColor=#A8DADC;horizontalStack=0;resizeParent=1;resizeLast=0;collapsible=1;marginBottom=0;swimlaneFillColor=#ffffff;align=center;shadow=0;comic=0;labelBackgroundColor=none;strokeWidth=1;fontFamily=Verdana;fontSize=14;strokeColor=#457B9D;fontColor=#1D3557;" parent="1" vertex="1">
          <mxGeometry x="-1480" y="213" width="261" height="188" as="geometry">
            <mxRectangle x="-1450" y="190" width="90" height="26" as="alternateBounds" />
          </mxGeometry>
        </mxCell>
        <mxCell id="I7QZOoxyqQ6AWKhXD5qM-36" value="&amp;nbsp; &amp;nbsp; &lt;u&gt;CFE_IDENTI (PK,FK)&lt;/u&gt;" style="shape=partialRectangle;top=0;left=0;right=0;bottom=1;html=1;align=left;verticalAlign=middle;fillColor=none;spacingLeft=60;spacingRight=4;whiteSpace=wrap;overflow=hidden;rotatable=0;points=[[0,0.5],[1,0.5]];portConstraint=eastwest;dropTarget=0;fontStyle=1;strokeColor=#457B9D;fontColor=#1D3557;" parent="I7QZOoxyqQ6AWKhXD5qM-35" vertex="1">
          <mxGeometry y="26" width="261" height="44" as="geometry" />
        </mxCell>
        <mxCell id="I7QZOoxyqQ6AWKhXD5qM-37" value="bigserial" style="shape=partialRectangle;fontStyle=1;top=0;left=0;bottom=0;html=1;fillColor=none;align=left;verticalAlign=middle;spacingLeft=4;spacingRight=4;whiteSpace=wrap;overflow=hidden;rotatable=0;points=[];portConstraint=eastwest;part=1;strokeColor=#457B9D;fontColor=#1D3557;" parent="I7QZOoxyqQ6AWKhXD5qM-36" vertex="1" connectable="0">
          <mxGeometry width="70" height="44" as="geometry" />
        </mxCell>
        <mxCell id="I7QZOoxyqQ6AWKhXD5qM-38" value="&amp;nbsp; &amp;nbsp; CFE_DESCRI" style="shape=partialRectangle;top=0;left=0;right=0;bottom=0;html=1;align=left;verticalAlign=top;fillColor=none;spacingLeft=60;spacingRight=4;whiteSpace=wrap;overflow=hidden;rotatable=0;points=[[0,0.5],[1,0.5]];portConstraint=eastwest;dropTarget=0;strokeColor=#457B9D;fontColor=#1D3557;" parent="I7QZOoxyqQ6AWKhXD5qM-35" vertex="1">
          <mxGeometry y="70" width="261" height="24" as="geometry" />
        </mxCell>
        <mxCell id="I7QZOoxyqQ6AWKhXD5qM-39" value="&lt;span&gt;char var&lt;/span&gt;" style="shape=partialRectangle;top=0;left=0;bottom=0;html=1;fillColor=none;align=left;verticalAlign=top;spacingLeft=4;spacingRight=4;whiteSpace=wrap;overflow=hidden;rotatable=0;points=[];portConstraint=eastwest;part=1;strokeColor=#457B9D;fontColor=#1D3557;" parent="I7QZOoxyqQ6AWKhXD5qM-38" vertex="1" connectable="0">
          <mxGeometry width="70" height="24" as="geometry" />
        </mxCell>
        <mxCell id="I7QZOoxyqQ6AWKhXD5qM-87" value="&amp;nbsp; &amp;nbsp; CFE_CAT_IDENTI (FK)" style="shape=partialRectangle;top=0;left=0;right=0;bottom=0;html=1;align=left;verticalAlign=top;fillColor=none;spacingLeft=60;spacingRight=4;whiteSpace=wrap;overflow=hidden;rotatable=0;points=[[0,0.5],[1,0.5]];portConstraint=eastwest;dropTarget=0;strokeColor=#457B9D;fontColor=#1D3557;" parent="I7QZOoxyqQ6AWKhXD5qM-35" vertex="1">
          <mxGeometry y="94" width="261" height="22" as="geometry" />
        </mxCell>
        <mxCell id="I7QZOoxyqQ6AWKhXD5qM-88" value="integer" style="shape=partialRectangle;top=0;left=0;bottom=0;html=1;fillColor=none;align=left;verticalAlign=top;spacingLeft=4;spacingRight=4;whiteSpace=wrap;overflow=hidden;rotatable=0;points=[];portConstraint=eastwest;part=1;strokeColor=#457B9D;fontColor=#1D3557;" parent="I7QZOoxyqQ6AWKhXD5qM-87" vertex="1" connectable="0">
          <mxGeometry width="70" height="22" as="geometry" />
        </mxCell>
        <mxCell id="I7QZOoxyqQ6AWKhXD5qM-89" value="&amp;nbsp; &amp;nbsp; CFE_FIE_IDENTI&amp;nbsp;(FK)" style="shape=partialRectangle;top=0;left=0;right=0;bottom=0;html=1;align=left;verticalAlign=top;fillColor=none;spacingLeft=60;spacingRight=4;whiteSpace=wrap;overflow=hidden;rotatable=0;points=[[0,0.5],[1,0.5]];portConstraint=eastwest;dropTarget=0;strokeColor=#457B9D;fontColor=#1D3557;" parent="I7QZOoxyqQ6AWKhXD5qM-35" vertex="1">
          <mxGeometry y="116" width="261" height="22" as="geometry" />
        </mxCell>
        <mxCell id="I7QZOoxyqQ6AWKhXD5qM-90" value="integer" style="shape=partialRectangle;top=0;left=0;bottom=0;html=1;fillColor=none;align=left;verticalAlign=top;spacingLeft=4;spacingRight=4;whiteSpace=wrap;overflow=hidden;rotatable=0;points=[];portConstraint=eastwest;part=1;strokeColor=#457B9D;fontColor=#1D3557;" parent="I7QZOoxyqQ6AWKhXD5qM-89" vertex="1" connectable="0">
          <mxGeometry width="70" height="22" as="geometry" />
        </mxCell>
        <mxCell id="I7QZOoxyqQ6AWKhXD5qM-40" value="&amp;nbsp; &amp;nbsp; CFE_CREDAT" style="shape=partialRectangle;top=0;left=0;right=0;bottom=0;html=1;align=left;verticalAlign=top;fillColor=none;spacingLeft=60;spacingRight=4;whiteSpace=wrap;overflow=hidden;rotatable=0;points=[[0,0.5],[1,0.5]];portConstraint=eastwest;dropTarget=0;strokeColor=#457B9D;fontColor=#1D3557;" parent="I7QZOoxyqQ6AWKhXD5qM-35" vertex="1">
          <mxGeometry y="138" width="261" height="22" as="geometry" />
        </mxCell>
        <mxCell id="I7QZOoxyqQ6AWKhXD5qM-41" value="timestamp" style="shape=partialRectangle;top=0;left=0;bottom=0;html=1;fillColor=none;align=left;verticalAlign=top;spacingLeft=4;spacingRight=4;whiteSpace=wrap;overflow=hidden;rotatable=0;points=[];portConstraint=eastwest;part=1;strokeColor=#457B9D;fontColor=#1D3557;" parent="I7QZOoxyqQ6AWKhXD5qM-40" vertex="1" connectable="0">
          <mxGeometry width="70" height="22" as="geometry" />
        </mxCell>
        <mxCell id="I7QZOoxyqQ6AWKhXD5qM-42" value="&amp;nbsp; &amp;nbsp; CFE_UPDDAT" style="shape=partialRectangle;top=0;left=0;right=0;bottom=0;html=1;align=left;verticalAlign=top;fillColor=none;spacingLeft=60;spacingRight=4;whiteSpace=wrap;overflow=hidden;rotatable=0;points=[[0,0.5],[1,0.5]];portConstraint=eastwest;dropTarget=0;strokeColor=#457B9D;fontColor=#1D3557;" parent="I7QZOoxyqQ6AWKhXD5qM-35" vertex="1">
          <mxGeometry y="160" width="261" height="28" as="geometry" />
        </mxCell>
        <mxCell id="I7QZOoxyqQ6AWKhXD5qM-43" value="timestamp" style="shape=partialRectangle;top=0;left=0;bottom=0;html=1;fillColor=none;align=left;verticalAlign=top;spacingLeft=4;spacingRight=4;whiteSpace=wrap;overflow=hidden;rotatable=0;points=[];portConstraint=eastwest;part=1;strokeColor=#457B9D;fontColor=#1D3557;" parent="I7QZOoxyqQ6AWKhXD5qM-42" vertex="1" connectable="0">
          <mxGeometry width="70" height="28" as="geometry" />
        </mxCell>
        <mxCell id="I7QZOoxyqQ6AWKhXD5qM-67" value="TCO_ACCFIE" style="swimlane;html=1;fontStyle=0;childLayout=stackLayout;horizontal=1;startSize=26;fillColor=#A8DADC;horizontalStack=0;resizeParent=1;resizeLast=0;collapsible=1;marginBottom=0;swimlaneFillColor=#ffffff;align=center;shadow=0;comic=0;labelBackgroundColor=none;strokeWidth=1;fontFamily=Verdana;fontSize=14;strokeColor=#457B9D;fontColor=#1D3557;" parent="1" vertex="1">
          <mxGeometry x="-1480" y="-170" width="261" height="224" as="geometry">
            <mxRectangle x="-1450" y="-120" width="90" height="26" as="alternateBounds" />
          </mxGeometry>
        </mxCell>
        <mxCell id="I7QZOoxyqQ6AWKhXD5qM-68" value="&amp;nbsp; &amp;nbsp; &lt;u&gt;ACF_IDENTI (PK,FK)&lt;/u&gt;" style="shape=partialRectangle;top=0;left=0;right=0;bottom=1;html=1;align=left;verticalAlign=middle;fillColor=none;spacingLeft=60;spacingRight=4;whiteSpace=wrap;overflow=hidden;rotatable=0;points=[[0,0.5],[1,0.5]];portConstraint=eastwest;dropTarget=0;fontStyle=1;strokeColor=#457B9D;fontColor=#1D3557;" parent="I7QZOoxyqQ6AWKhXD5qM-67" vertex="1">
          <mxGeometry y="26" width="261" height="44" as="geometry" />
        </mxCell>
        <mxCell id="I7QZOoxyqQ6AWKhXD5qM-69" value="bigserial" style="shape=partialRectangle;fontStyle=1;top=0;left=0;bottom=0;html=1;fillColor=none;align=left;verticalAlign=middle;spacingLeft=4;spacingRight=4;whiteSpace=wrap;overflow=hidden;rotatable=0;points=[];portConstraint=eastwest;part=1;strokeColor=#457B9D;fontColor=#1D3557;" parent="I7QZOoxyqQ6AWKhXD5qM-68" vertex="1" connectable="0">
          <mxGeometry width="70" height="44" as="geometry" />
        </mxCell>
        <mxCell id="I7QZOoxyqQ6AWKhXD5qM-70" value="&amp;nbsp; &amp;nbsp; ACF_ACC_IDENTI" style="shape=partialRectangle;top=0;left=0;right=0;bottom=0;html=1;align=left;verticalAlign=top;fillColor=none;spacingLeft=60;spacingRight=4;whiteSpace=wrap;overflow=hidden;rotatable=0;points=[[0,0.5],[1,0.5]];portConstraint=eastwest;dropTarget=0;strokeColor=#457B9D;fontColor=#1D3557;" parent="I7QZOoxyqQ6AWKhXD5qM-67" vertex="1">
          <mxGeometry y="70" width="261" height="24" as="geometry" />
        </mxCell>
        <mxCell id="I7QZOoxyqQ6AWKhXD5qM-71" value="integer" style="shape=partialRectangle;top=0;left=0;bottom=0;html=1;fillColor=none;align=left;verticalAlign=top;spacingLeft=4;spacingRight=4;whiteSpace=wrap;overflow=hidden;rotatable=0;points=[];portConstraint=eastwest;part=1;strokeColor=#457B9D;fontColor=#1D3557;" parent="I7QZOoxyqQ6AWKhXD5qM-70" vertex="1" connectable="0">
          <mxGeometry width="70" height="24" as="geometry" />
        </mxCell>
        <mxCell id="I7QZOoxyqQ6AWKhXD5qM-119" value="&amp;nbsp; &amp;nbsp; ACF_CFE_IDENTI" style="shape=partialRectangle;top=0;left=0;right=0;bottom=0;html=1;align=left;verticalAlign=top;fillColor=none;spacingLeft=60;spacingRight=4;whiteSpace=wrap;overflow=hidden;rotatable=0;points=[[0,0.5],[1,0.5]];portConstraint=eastwest;dropTarget=0;strokeColor=#457B9D;fontColor=#1D3557;" parent="I7QZOoxyqQ6AWKhXD5qM-67" vertex="1">
          <mxGeometry y="94" width="261" height="24" as="geometry" />
        </mxCell>
        <mxCell id="I7QZOoxyqQ6AWKhXD5qM-120" value="integer" style="shape=partialRectangle;top=0;left=0;bottom=0;html=1;fillColor=none;align=left;verticalAlign=top;spacingLeft=4;spacingRight=4;whiteSpace=wrap;overflow=hidden;rotatable=0;points=[];portConstraint=eastwest;part=1;strokeColor=#457B9D;fontColor=#1D3557;" parent="I7QZOoxyqQ6AWKhXD5qM-119" vertex="1" connectable="0">
          <mxGeometry width="70" height="24" as="geometry" />
        </mxCell>
        <mxCell id="I7QZOoxyqQ6AWKhXD5qM-72" value="&amp;nbsp; &amp;nbsp; ACF_SHWPRO" style="shape=partialRectangle;top=0;left=0;right=0;bottom=0;html=1;align=left;verticalAlign=top;fillColor=none;spacingLeft=60;spacingRight=4;whiteSpace=wrap;overflow=hidden;rotatable=0;points=[[0,0.5],[1,0.5]];portConstraint=eastwest;dropTarget=0;strokeColor=#457B9D;fontColor=#1D3557;" parent="I7QZOoxyqQ6AWKhXD5qM-67" vertex="1">
          <mxGeometry y="118" width="261" height="22" as="geometry" />
        </mxCell>
        <mxCell id="I7QZOoxyqQ6AWKhXD5qM-73" value="boolean" style="shape=partialRectangle;top=0;left=0;bottom=0;html=1;fillColor=none;align=left;verticalAlign=top;spacingLeft=4;spacingRight=4;whiteSpace=wrap;overflow=hidden;rotatable=0;points=[];portConstraint=eastwest;part=1;strokeColor=#457B9D;fontColor=#1D3557;" parent="I7QZOoxyqQ6AWKhXD5qM-72" vertex="1" connectable="0">
          <mxGeometry width="70" height="22" as="geometry" />
        </mxCell>
        <mxCell id="I7QZOoxyqQ6AWKhXD5qM-74" value="&amp;nbsp; &amp;nbsp; ACF_DESCRI" style="shape=partialRectangle;top=0;left=0;right=0;bottom=0;html=1;align=left;verticalAlign=top;fillColor=none;spacingLeft=60;spacingRight=4;whiteSpace=wrap;overflow=hidden;rotatable=0;points=[[0,0.5],[1,0.5]];portConstraint=eastwest;dropTarget=0;strokeColor=#457B9D;fontColor=#1D3557;" parent="I7QZOoxyqQ6AWKhXD5qM-67" vertex="1">
          <mxGeometry y="140" width="261" height="28" as="geometry" />
        </mxCell>
        <mxCell id="I7QZOoxyqQ6AWKhXD5qM-75" value="char var" style="shape=partialRectangle;top=0;left=0;bottom=0;html=1;fillColor=none;align=left;verticalAlign=top;spacingLeft=4;spacingRight=4;whiteSpace=wrap;overflow=hidden;rotatable=0;points=[];portConstraint=eastwest;part=1;strokeColor=#457B9D;fontColor=#1D3557;" parent="I7QZOoxyqQ6AWKhXD5qM-74" vertex="1" connectable="0">
          <mxGeometry width="70" height="28" as="geometry" />
        </mxCell>
        <mxCell id="I7QZOoxyqQ6AWKhXD5qM-132" value="&amp;nbsp; &amp;nbsp; ACC_CREDAT" style="shape=partialRectangle;top=0;left=0;right=0;bottom=0;html=1;align=left;verticalAlign=top;fillColor=none;spacingLeft=60;spacingRight=4;whiteSpace=wrap;overflow=hidden;rotatable=0;points=[[0,0.5],[1,0.5]];portConstraint=eastwest;dropTarget=0;strokeColor=#457B9D;fontColor=#1D3557;" parent="I7QZOoxyqQ6AWKhXD5qM-67" vertex="1">
          <mxGeometry y="168" width="261" height="28" as="geometry" />
        </mxCell>
        <mxCell id="I7QZOoxyqQ6AWKhXD5qM-133" value="timestamp" style="shape=partialRectangle;top=0;left=0;bottom=0;html=1;fillColor=none;align=left;verticalAlign=top;spacingLeft=4;spacingRight=4;whiteSpace=wrap;overflow=hidden;rotatable=0;points=[];portConstraint=eastwest;part=1;strokeColor=#457B9D;fontColor=#1D3557;" parent="I7QZOoxyqQ6AWKhXD5qM-132" vertex="1" connectable="0">
          <mxGeometry width="70" height="28" as="geometry" />
        </mxCell>
        <mxCell id="I7QZOoxyqQ6AWKhXD5qM-138" value="&amp;nbsp; &amp;nbsp; ACC_UPDDAT" style="shape=partialRectangle;top=0;left=0;right=0;bottom=0;html=1;align=left;verticalAlign=top;fillColor=none;spacingLeft=60;spacingRight=4;whiteSpace=wrap;overflow=hidden;rotatable=0;points=[[0,0.5],[1,0.5]];portConstraint=eastwest;dropTarget=0;strokeColor=#457B9D;fontColor=#1D3557;" parent="I7QZOoxyqQ6AWKhXD5qM-67" vertex="1">
          <mxGeometry y="196" width="261" height="28" as="geometry" />
        </mxCell>
        <mxCell id="I7QZOoxyqQ6AWKhXD5qM-139" value="timestamp" style="shape=partialRectangle;top=0;left=0;bottom=0;html=1;fillColor=none;align=left;verticalAlign=top;spacingLeft=4;spacingRight=4;whiteSpace=wrap;overflow=hidden;rotatable=0;points=[];portConstraint=eastwest;part=1;strokeColor=#457B9D;fontColor=#1D3557;" parent="I7QZOoxyqQ6AWKhXD5qM-138" vertex="1" connectable="0">
          <mxGeometry width="70" height="28" as="geometry" />
        </mxCell>
        <mxCell id="I7QZOoxyqQ6AWKhXD5qM-100" style="edgeStyle=orthogonalEdgeStyle;rounded=1;orthogonalLoop=1;jettySize=auto;html=1;exitX=0;exitY=0.5;exitDx=0;exitDy=0;entryX=1;entryY=0.5;entryDx=0;entryDy=0;fillColor=#dae8fc;strokeColor=#6c8ebf;strokeWidth=2;" parent="1" source="zdtIfTnhVCdvp5yQkyVi-19" target="I7QZOoxyqQ6AWKhXD5qM-70" edge="1">
          <mxGeometry relative="1" as="geometry" />
        </mxCell>
        <mxCell id="I7QZOoxyqQ6AWKhXD5qM-117" style="edgeStyle=orthogonalEdgeStyle;rounded=1;orthogonalLoop=1;jettySize=auto;html=1;exitX=0;exitY=0.5;exitDx=0;exitDy=0;entryX=1;entryY=0.5;entryDx=0;entryDy=0;fillColor=#dae8fc;strokeColor=#6c8ebf;strokeWidth=2;" parent="1" source="iSOXeTbzysZyc92H4kfC-2" target="I7QZOoxyqQ6AWKhXD5qM-87" edge="1">
          <mxGeometry relative="1" as="geometry" />
        </mxCell>
        <mxCell id="I7QZOoxyqQ6AWKhXD5qM-118" style="edgeStyle=orthogonalEdgeStyle;rounded=1;orthogonalLoop=1;jettySize=auto;html=1;exitX=0;exitY=0.5;exitDx=0;exitDy=0;entryX=1;entryY=0.5;entryDx=0;entryDy=0;fillColor=#dae8fc;strokeColor=#6c8ebf;strokeWidth=2;" parent="1" source="I7QZOoxyqQ6AWKhXD5qM-24" target="I7QZOoxyqQ6AWKhXD5qM-89" edge="1">
          <mxGeometry relative="1" as="geometry" />
        </mxCell>
        <mxCell id="I7QZOoxyqQ6AWKhXD5qM-121" style="edgeStyle=orthogonalEdgeStyle;rounded=1;orthogonalLoop=1;jettySize=auto;html=1;fillColor=#dae8fc;strokeColor=#6c8ebf;strokeWidth=2;" parent="1" source="I7QZOoxyqQ6AWKhXD5qM-36" edge="1">
          <mxGeometry relative="1" as="geometry">
            <mxPoint x="-1480" y="-60" as="targetPoint" />
            <Array as="points">
              <mxPoint x="-1500" y="261" />
              <mxPoint x="-1500" y="-60" />
              <mxPoint x="-1480" y="-60" />
            </Array>
          </mxGeometry>
        </mxCell>
        <mxCell id="I7QZOoxyqQ6AWKhXD5qM-123" style="edgeStyle=orthogonalEdgeStyle;rounded=1;orthogonalLoop=1;jettySize=auto;html=1;exitX=1;exitY=0.5;exitDx=0;exitDy=0;entryX=0;entryY=0.5;entryDx=0;entryDy=0;fillColor=#dae8fc;strokeColor=#6c8ebf;strokeWidth=2;" parent="1" source="zdtIfTnhVCdvp5yQkyVi-19" target="iSOXeTbzysZyc92H4kfC-27" edge="1">
          <mxGeometry relative="1" as="geometry">
            <Array as="points">
              <mxPoint x="-769" y="-140" />
              <mxPoint x="-694" y="-140" />
              <mxPoint x="-694" y="-88" />
            </Array>
          </mxGeometry>
        </mxCell>
        <mxCell id="I7QZOoxyqQ6AWKhXD5qM-124" style="edgeStyle=orthogonalEdgeStyle;rounded=1;orthogonalLoop=1;jettySize=auto;html=1;entryX=0.07;entryY=0.4;entryDx=0;entryDy=0;entryPerimeter=0;fillColor=#dae8fc;strokeColor=#6c8ebf;strokeWidth=2;" parent="1" source="iSOXeTbzysZyc92H4kfC-39" target="zdtIfTnhVCdvp5yQkyVi-76" edge="1">
          <mxGeometry relative="1" as="geometry" />
        </mxCell>
        <mxCell id="I7QZOoxyqQ6AWKhXD5qM-126" style="edgeStyle=orthogonalEdgeStyle;rounded=1;orthogonalLoop=1;jettySize=auto;html=1;entryX=0.532;entryY=0.946;entryDx=0;entryDy=0;entryPerimeter=0;fillColor=#dae8fc;strokeWidth=2;strokeColor=#6C8EBF;" parent="1" source="zdtIfTnhVCdvp5yQkyVi-23" target="zdtIfTnhVCdvp5yQkyVi-76" edge="1">
          <mxGeometry relative="1" as="geometry">
            <mxPoint x="370" y="54.00000000000023" as="targetPoint" />
            <Array as="points">
              <mxPoint x="363" y="54" />
            </Array>
          </mxGeometry>
        </mxCell>
        <mxCell id="I7QZOoxyqQ6AWKhXD5qM-142" style="edgeStyle=orthogonalEdgeStyle;rounded=1;orthogonalLoop=1;jettySize=auto;html=1;strokeWidth=2;entryX=0.8;entryY=0.8;entryDx=0;entryDy=0;entryPerimeter=0;strokeColor=#6C8EBF;" parent="1" source="iSOXeTbzysZyc92H4kfC-62" target="zdtIfTnhVCdvp5yQkyVi-76" edge="1">
          <mxGeometry relative="1" as="geometry">
            <mxPoint x="570" y="-60" as="targetPoint" />
            <Array as="points">
              <mxPoint x="470" y="260" />
            </Array>
          </mxGeometry>
        </mxCell>
        <mxCell id="I7QZOoxyqQ6AWKhXD5qM-143" style="edgeStyle=orthogonalEdgeStyle;rounded=1;orthogonalLoop=1;jettySize=auto;html=1;exitX=1;exitY=0.5;exitDx=0;exitDy=0;strokeColor=#6C8EBF;strokeWidth=2;entryX=0;entryY=0.5;entryDx=0;entryDy=0;" parent="1" source="zdtIfTnhVCdvp5yQkyVi-19" target="iSOXeTbzysZyc92H4kfC-50" edge="1">
          <mxGeometry relative="1" as="geometry">
            <mxPoint x="-220" y="220" as="targetPoint" />
            <Array as="points">
              <mxPoint x="-730" y="-122" />
              <mxPoint x="-730" y="212" />
            </Array>
          </mxGeometry>
        </mxCell>
        <mxCell id="I7QZOoxyqQ6AWKhXD5qM-144" style="edgeStyle=orthogonalEdgeStyle;rounded=1;orthogonalLoop=1;jettySize=auto;html=1;exitX=1;exitY=0.5;exitDx=0;exitDy=0;entryX=0;entryY=0.5;entryDx=0;entryDy=0;strokeColor=#6C8EBF;strokeWidth=2;" parent="1" source="zdtIfTnhVCdvp5yQkyVi-82" target="iSOXeTbzysZyc92H4kfC-74" edge="1">
          <mxGeometry relative="1" as="geometry" />
        </mxCell>
        <mxCell id="I7QZOoxyqQ6AWKhXD5qM-149" style="edgeStyle=orthogonalEdgeStyle;rounded=1;orthogonalLoop=1;jettySize=auto;html=1;entryX=0;entryY=0.5;entryDx=0;entryDy=0;strokeColor=#6C8EBF;strokeWidth=2;" parent="1" source="2e49270ec7c68f3f-4" target="I7QZOoxyqQ6AWKhXD5qM-145" edge="1">
          <mxGeometry relative="1" as="geometry">
            <Array as="points">
              <mxPoint x="-760" y="-732" />
              <mxPoint x="-760" y="-568" />
            </Array>
          </mxGeometry>
        </mxCell>
      </root>
    </mxGraphModel>
  </diagram>
</mxfile>
